{"glyphs":{"0":{"ha":729,"x_min":63,"x_max":667,"o":"m 585 78 q 544 32 585 78 q 364 -14 503 -14 q 144 78 225 -14 q 63 322 63 169 q 144 569 63 478 q 364 660 225 660 q 585 569 503 660 q 667 322 667 478 q 585 78 667 169 m 586 307 q 527 497 586 413 q 364 582 468 582 q 205 512 267 582 q 143 344 143 442 q 202 149 143 233 q 363 64 261 64 q 524 134 463 64 q 586 307 586 204 z "},"1":{"ha":482,"x_min":64,"x_max":438,"o":"m 315 75 q 432 81 368 75 q 438 50 438 64 q 383 -3 438 -3 q 314 -1 375 -3 q 193 0 253 0 q 72 -1 115 0 q 65 32 65 19 q 146 79 65 79 l 213 79 q 214 186 213 97 q 215 347 215 275 q 211 574 215 469 q 67 554 96 560 q 64 578 64 568 q 118 638 64 629 q 261 660 251 660 q 299 647 282 660 q 317 607 317 635 q 314 554 317 599 q 308 442 311 510 q 306 310 306 374 l 306 263 q 315 75 306 136 z "},"2":{"ha":669,"x_min":43,"x_max":636,"o":"m 175 85 q 472 96 283 85 q 619 114 561 99 q 636 64 636 90 q 536 1 636 6 q 307 -3 428 -3 q 107 0 215 -3 q 43 63 43 0 q 44 79 43 74 q 143 142 67 94 q 258 219 219 190 q 351 292 297 247 q 428 378 404 336 q 453 463 453 421 q 415 547 453 514 q 315 581 376 581 q 222 549 271 581 q 143 468 174 517 q 93 511 93 475 q 168 610 93 560 q 335 660 243 660 q 494 611 435 660 q 554 486 554 563 q 460 282 554 390 q 175 85 365 174 z "},"3":{"ha":592,"x_min":24,"x_max":513,"o":"m 132 288 q 326 336 261 288 q 390 451 390 385 q 352 544 390 504 q 253 583 314 583 q 158 554 204 583 q 83 471 111 525 q 40 485 57 471 q 24 517 24 499 q 95 612 24 564 q 258 660 167 660 q 426 601 365 660 q 486 461 486 542 q 452 356 486 406 q 353 281 418 307 q 470 197 428 257 q 513 60 513 136 q 421 -142 513 -64 q 171 -221 329 -221 q 65 -201 101 -221 q 28 -150 28 -181 q 74 -99 28 -110 q 189 -140 115 -140 q 354 -90 294 -140 q 414 40 414 -39 q 351 172 414 124 q 181 219 289 219 q 142 228 154 219 q 131 268 131 236 l 132 288 z "},"4":{"ha":694,"x_min":24,"x_max":650,"o":"m 107 158 q 256 154 181 154 q 414 158 339 154 q 418 549 414 331 q 107 158 282 413 m 411 642 q 481 658 429 658 q 515 656 490 658 q 512 601 515 651 q 506 460 508 550 q 503 274 503 371 l 503 163 q 639 186 606 171 q 650 136 650 161 q 622 86 650 96 q 504 74 590 75 q 531 -210 504 -126 q 479 -221 506 -221 q 425 -203 439 -221 q 411 -142 411 -185 q 414 72 411 -83 q 54 82 131 72 q 24 139 24 86 q 26 174 24 154 q 218 430 85 267 q 411 642 351 593 z "},"5":{"ha":621,"x_min":46,"x_max":557,"o":"m 535 610 q 432 549 535 549 q 183 557 329 549 l 164 333 q 275 340 207 340 q 482 274 407 340 q 557 83 557 207 q 465 -137 557 -53 q 208 -221 372 -221 q 88 -201 131 -221 q 46 -150 46 -181 q 92 -99 46 -110 q 215 -140 136 -140 q 394 -83 329 -140 q 458 64 458 -26 q 401 208 458 150 q 225 267 343 267 q 101 260 153 267 q 88 321 88 274 q 106 649 88 340 q 372 646 144 646 q 521 657 467 646 q 535 610 535 636 z "},"6":{"ha":678,"x_min":63,"x_max":615,"o":"m 338 -14 q 129 82 196 -14 q 63 328 63 178 q 112 579 63 458 q 265 783 161 700 q 506 867 369 867 q 563 821 563 867 q 557 782 563 807 q 500 788 518 788 q 311 719 390 788 q 197 554 232 651 q 161 350 161 457 q 347 64 161 64 q 471 126 428 64 q 514 276 514 189 q 470 428 514 376 q 357 481 426 481 q 281 464 318 481 q 267 504 267 486 q 289 538 267 525 q 381 557 328 557 q 558 484 501 557 q 615 300 615 411 q 542 81 615 176 q 338 -14 468 -14 z "},"7":{"ha":586,"x_min":-10,"x_max":556,"o":"m 451 557 q 97 550 236 550 q -10 611 -10 550 q 4 658 -10 631 q 160 647 72 647 q 544 650 472 647 q 556 599 556 628 q 547 546 556 571 q 419 259 524 471 q 219 -125 314 47 q 172 -197 193 -174 q 125 -221 150 -221 q 36 -167 81 -221 q 272 170 154 -46 q 451 557 389 386 z "},"8":{"ha":700,"x_min":63,"x_max":638,"o":"m 501 686 q 456 760 501 731 q 349 789 411 789 q 241 760 286 789 q 196 686 196 731 q 378 511 196 582 q 473 586 444 546 q 501 686 501 626 m 213 113 q 239 88 213 113 q 349 64 264 64 q 484 113 433 64 q 535 225 535 161 q 484 344 535 300 q 328 433 433 389 q 204 351 246 399 q 163 225 163 303 q 213 113 163 161 m 563 55 q 526 20 563 55 q 350 -14 489 -14 q 137 55 211 -14 q 63 219 63 124 q 112 372 63 317 q 256 468 161 426 q 137 556 176 507 q 97 685 97 606 q 171 816 97 765 q 349 867 244 867 q 535 811 468 867 q 601 678 601 756 q 562 565 601 618 q 446 476 522 511 q 586 374 535 433 q 638 219 638 315 q 563 55 638 124 z "},"9":{"ha":678,"x_min":63,"x_max":615,"o":"m 340 660 q 549 564 482 660 q 615 318 615 468 q 566 67 615 188 q 413 -137 517 -54 q 172 -221 308 -221 q 115 -175 115 -221 q 121 -136 115 -161 q 178 -142 160 -142 q 367 -74 288 -142 q 481 92 446 -6 q 517 296 517 189 q 331 582 517 582 q 207 519 250 582 q 164 369 164 457 q 208 217 164 269 q 321 165 251 165 q 397 182 360 165 q 411 142 411 160 q 389 108 411 121 q 297 89 350 89 q 119 162 176 89 q 63 346 63 235 q 136 565 63 469 q 340 660 210 660 z "}," ":{"ha":319,"x_min":0,"x_max":0,"o":""},"!":{"ha":363,"x_min":83,"x_max":251,"o":"m 227 11 q 215 -1 227 11 q 168 -14 203 -14 q 108 11 133 -14 q 83 74 83 36 q 108 137 83 111 q 168 163 133 163 q 227 137 203 163 q 251 74 251 111 q 227 11 251 36 m 222 725 q 210 609 222 696 q 197 449 197 522 l 197 403 q 219 276 197 321 q 168 263 192 263 q 111 314 113 263 q 110 430 110 328 q 104 626 110 532 q 85 764 99 721 q 157 778 124 778 q 222 725 222 778 z "},"\"":{"ha":479,"x_min":69,"x_max":424,"o":"m 69 969 q 88 1009 69 994 q 135 1024 107 1024 q 176 1008 160 1024 q 193 960 193 993 q 167 728 193 901 q 150 681 161 694 q 118 668 139 668 q 85 674 101 668 q 89 729 89 699 q 79 885 89 814 q 69 969 69 956 m 300 969 q 319 1009 300 994 q 365 1024 338 1024 q 407 1008 390 1024 q 424 960 424 993 q 397 728 424 901 q 381 681 392 694 q 349 668 369 668 q 315 674 332 668 q 319 729 319 699 q 310 885 319 814 q 300 969 300 956 z "},"#":{"ha":743,"x_min":19,"x_max":743,"o":"m 286 378 q 451 379 415 378 q 472 540 460 429 q 354 542 436 542 l 311 542 q 286 378 293 440 m 544 851 q 588 807 588 851 q 554 617 588 804 q 743 625 718 624 q 740 578 742 594 q 722 547 738 563 q 676 531 706 531 q 649 532 669 531 q 597 535 629 533 q 539 538 564 536 q 515 379 526 463 q 710 389 642 385 q 707 353 708 365 q 700 326 706 342 q 680 303 694 310 q 643 296 665 296 q 615 297 636 296 q 562 300 594 299 q 504 303 529 301 q 490 147 490 182 q 496 68 490 118 q 451 57 476 57 q 410 103 410 57 q 439 306 410 124 q 321 307 403 307 l 276 307 q 261 147 261 169 q 267 68 261 118 q 222 57 247 57 q 181 103 181 57 q 210 306 181 124 q 24 281 94 300 q 19 325 19 294 q 107 381 19 381 q 222 379 179 381 l 243 540 q 57 515 128 535 q 53 561 53 529 q 140 617 53 617 l 253 615 q 262 688 256 636 q 272 782 268 740 q 278 847 276 824 q 315 851 297 851 q 358 807 358 851 q 324 614 358 797 l 482 614 q 494 720 483 626 q 507 847 506 814 q 544 851 526 851 z "},"$":{"ha":743,"x_min":83,"x_max":635,"o":"m 185 593 q 222 508 185 539 q 326 457 258 478 l 326 725 q 224 689 264 722 q 185 593 185 656 m 549 211 q 507 297 549 269 q 383 347 465 325 l 383 61 q 501 102 454 64 q 549 211 549 140 m 549 636 q 483 693 529 669 q 382 724 436 717 l 382 442 q 419 432 414 433 q 453 422 424 431 q 490 410 483 414 q 522 397 497 407 q 555 381 547 388 q 580 362 563 374 q 603 338 597 350 q 619 310 610 325 q 632 276 629 294 q 635 236 635 257 q 564 56 635 115 q 383 -12 493 -3 q 389 -92 386 -68 l 368 -94 q 328 -57 328 -94 l 328 -14 q 156 21 229 -11 q 83 97 83 53 q 99 135 83 121 q 144 163 114 149 q 217 98 165 125 q 328 64 268 71 l 328 360 q 259 379 288 369 q 197 408 231 389 q 144 449 164 426 q 111 508 125 471 q 97 590 97 544 q 160 734 97 681 q 326 800 224 788 q 321 903 324 872 q 344 907 336 907 q 382 869 382 907 l 382 804 q 542 775 468 804 q 617 694 617 746 q 549 636 617 649 z "},"%":{"ha":1103,"x_min":69,"x_max":1033,"o":"m 844 -14 q 706 41 757 -14 q 654 189 654 96 q 706 337 654 282 q 844 392 757 392 q 982 337 931 392 q 1033 189 1033 282 q 982 41 1033 96 q 844 -14 931 -14 m 950 181 q 922 285 950 239 q 844 331 894 331 q 766 294 797 331 q 735 204 735 258 q 763 96 735 143 q 843 49 792 49 q 921 86 892 49 q 950 181 950 124 m 251 22 l 618 490 q 813 750 744 651 q 852 733 833 747 q 871 703 871 718 q 857 671 871 690 l 490 201 q 296 -58 369 47 q 238 -10 238 -40 q 251 22 238 4 m 260 290 q 121 345 172 290 q 69 493 69 400 q 121 641 69 586 q 260 696 172 696 q 397 641 346 696 q 449 493 449 586 q 397 345 449 400 q 260 290 346 290 m 365 485 q 338 589 365 543 q 260 635 310 635 q 181 599 213 635 q 150 508 150 563 q 178 400 150 447 q 258 353 207 353 q 336 390 307 353 q 365 485 365 428 z "},"&":{"ha":703,"x_min":71,"x_max":661,"o":"m 213 567 q 271 426 213 526 q 345 498 322 465 q 368 576 368 531 q 350 633 368 610 q 294 656 332 656 q 213 567 213 656 m 322 71 q 413 93 371 71 q 228 306 311 190 q 181 204 181 263 q 220 107 181 143 q 322 71 260 71 m 525 336 q 583 264 583 336 q 547 119 583 181 q 658 81 606 82 q 661 49 661 67 q 645 7 661 24 q 596 -10 629 -10 q 475 39 539 -10 q 311 -10 404 -10 q 143 44 215 -10 q 71 194 71 97 q 99 292 71 254 q 185 369 128 331 q 139 451 153 425 q 108 558 108 517 q 164 685 108 638 q 304 732 219 732 q 428 689 383 732 q 472 588 472 646 q 460 510 472 544 q 419 447 447 475 q 370 403 392 419 q 310 363 349 388 q 475 172 392 249 q 483 228 483 196 q 467 318 483 275 q 525 336 506 336 z "},"'":{"ha":332,"x_min":83,"x_max":207,"o":"m 83 969 q 102 1009 83 994 q 149 1024 121 1024 q 190 1008 174 1024 q 207 960 207 993 q 181 728 207 901 q 164 681 175 694 q 132 668 153 668 q 99 674 115 668 q 103 729 103 699 q 93 885 103 814 q 83 969 83 956 z "},"(":{"ha":476,"x_min":125,"x_max":417,"o":"m 125 369 q 153 607 125 485 q 221 816 182 729 q 301 959 260 903 q 371 1015 343 1015 q 417 983 394 1015 q 278 713 331 886 q 225 369 225 540 q 279 14 225 182 q 417 -250 333 -154 q 371 -282 394 -282 q 303 -227 344 -282 q 222 -86 263 -172 q 153 124 182 0 q 125 369 125 249 z "},")":{"ha":444,"x_min":28,"x_max":319,"o":"m 319 369 q 291 124 319 249 q 222 -86 263 0 q 141 -227 182 -172 q 74 -282 100 -282 q 28 -250 50 -282 q 165 14 111 -154 q 219 369 219 182 q 167 713 219 540 q 28 983 114 886 q 74 1015 50 1015 q 143 959 101 1015 q 224 816 185 903 q 291 607 263 729 q 319 369 319 485 z "},"*":{"ha":564,"x_min":49,"x_max":501,"o":"m 335 978 q 317 840 335 964 q 461 943 344 858 q 501 868 501 908 q 494 843 501 854 q 469 822 488 832 q 437 806 451 813 q 390 788 422 800 q 338 768 357 775 q 482 636 368 736 q 406 579 450 579 q 371 598 388 579 q 323 667 354 617 q 279 736 292 717 q 242 680 261 711 q 203 614 224 649 q 174 563 183 579 q 126 592 147 572 q 104 635 104 611 q 124 674 104 651 q 196 747 144 697 q 222 772 213 763 q 49 836 178 792 q 71 894 54 868 q 114 919 88 919 q 142 912 126 919 q 194 879 157 904 q 246 844 231 854 q 225 1025 243 882 q 269 1032 249 1032 q 335 978 335 1032 z "},"+":{"ha":743,"x_min":68,"x_max":675,"o":"m 411 389 q 671 400 575 389 q 675 358 675 388 q 661 317 675 333 q 625 300 647 300 q 523 305 601 300 q 410 310 444 310 q 421 36 410 158 q 379 32 400 32 q 338 45 356 32 q 321 82 321 58 q 325 172 321 93 q 331 311 329 250 q 72 300 193 310 q 68 342 68 321 q 81 382 68 364 q 118 400 93 400 q 202 396 129 400 q 332 390 275 392 q 321 664 332 568 q 363 668 333 668 q 404 654 388 668 q 421 618 421 640 q 416 509 421 594 q 411 389 411 424 z "},",":{"ha":315,"x_min":38,"x_max":235,"o":"m 149 -31 q 81 51 149 38 q 67 97 67 74 q 90 147 67 126 q 147 167 114 167 q 209 135 183 167 q 235 36 235 103 q 187 -125 235 -51 q 74 -199 139 -199 q 38 -157 38 -199 q 39 -140 38 -146 l 46 -140 q 119 -107 90 -140 q 149 -31 149 -74 z "},"-":{"ha":319,"x_min":35,"x_max":313,"o":"m 313 371 q 299 332 313 347 q 263 317 285 317 q 219 320 254 317 q 156 324 183 324 q 39 313 90 324 q 35 354 35 333 q 47 392 35 376 q 85 408 58 408 q 127 406 86 408 q 200 403 168 403 q 308 413 265 403 q 313 371 313 400 z "},".":{"ha":321,"x_min":69,"x_max":238,"o":"m 213 11 q 201 -1 213 11 q 154 -14 189 -14 q 94 11 119 -14 q 69 74 69 36 q 94 137 69 111 q 154 163 119 163 q 213 137 189 163 q 238 74 238 111 q 213 11 238 36 z "},"/":{"ha":358,"x_min":58,"x_max":310,"o":"m 179 157 q 138 -165 149 -46 q 104 -169 119 -169 q 58 -131 58 -169 q 189 704 58 -121 q 231 1026 219 907 l 260 1031 q 310 993 310 1031 l 179 157 z "},":":{"ha":321,"x_min":69,"x_max":238,"o":"m 213 11 q 201 -1 213 11 q 154 -14 189 -14 q 94 11 119 -14 q 69 74 69 36 q 94 137 69 111 q 154 163 119 163 q 213 137 189 163 q 238 74 238 111 q 213 11 238 36 m 213 513 q 201 500 213 513 q 154 488 189 488 q 94 513 119 488 q 69 575 69 538 q 94 638 69 613 q 154 664 119 664 q 213 638 189 664 q 238 575 238 613 q 213 513 238 538 z "},";":{"ha":342,"x_min":38,"x_max":235,"o":"m 209 513 q 197 500 209 513 q 150 488 185 488 q 90 513 115 488 q 65 575 65 538 q 90 638 65 613 q 150 664 115 664 q 209 638 185 664 q 233 575 233 613 q 209 513 233 538 m 149 -31 q 81 51 149 38 q 67 97 67 74 q 90 147 67 126 q 147 167 114 167 q 209 135 183 167 q 235 36 235 103 q 187 -125 235 -51 q 74 -199 139 -199 q 38 -157 38 -199 q 39 -140 38 -146 l 46 -140 q 119 -107 90 -140 q 149 -31 149 -74 z "},"<":{"ha":743,"x_min":147,"x_max":554,"o":"m 253 349 q 554 72 304 297 q 486 25 529 25 q 451 40 467 25 l 147 349 l 451 640 q 486 656 469 656 q 526 641 507 656 q 554 608 544 626 q 457 524 531 588 q 320 407 383 461 q 253 349 257 353 z "},"=":{"ha":743,"x_min":96,"x_max":647,"o":"m 647 219 q 633 178 647 194 q 597 161 619 161 q 498 167 575 161 q 381 172 421 172 q 100 161 222 172 q 96 203 96 182 q 108 243 96 225 q 146 261 121 261 q 233 256 150 261 q 378 251 317 251 q 643 261 558 251 q 647 219 647 249 m 647 497 q 633 456 647 472 q 597 439 619 439 q 498 444 575 439 q 381 450 421 450 q 100 439 222 450 q 96 481 96 460 q 108 521 96 503 q 146 539 121 539 q 233 534 150 539 q 378 529 317 529 q 643 539 558 529 q 647 497 647 526 z "},">":{"ha":743,"x_min":167,"x_max":574,"o":"m 468 349 q 401 407 464 353 q 264 524 338 461 q 167 608 190 588 q 195 641 176 626 q 235 656 214 656 q 269 640 251 656 l 574 349 l 269 40 q 235 25 254 25 q 167 72 192 25 q 468 349 417 297 z "},"?":{"ha":451,"x_min":35,"x_max":424,"o":"m 267 13 q 255 0 267 13 q 208 -12 243 -12 q 149 13 174 -12 q 124 75 124 38 q 149 138 124 113 q 208 164 174 164 q 267 138 243 164 q 292 75 292 113 q 267 13 292 38 m 261 278 q 207 264 225 264 q 144 339 144 264 q 172 419 144 379 q 233 487 200 460 q 293 553 265 514 q 321 631 321 592 q 295 683 321 664 q 232 701 269 701 q 152 676 190 701 q 104 610 114 650 q 35 669 35 619 q 88 749 35 719 q 215 779 142 779 q 360 744 296 779 q 424 636 424 710 q 406 553 424 590 q 361 492 388 517 q 308 447 335 468 q 264 401 282 426 q 246 346 246 375 q 261 278 246 318 z "},"@":{"ha":1196,"x_min":153,"x_max":986,"o":"m 486 132 q 390 177 428 132 q 351 307 351 222 q 416 519 351 431 q 575 607 481 607 q 760 551 685 607 q 715 286 715 382 q 763 219 715 219 q 847 282 806 219 q 888 446 888 344 q 822 640 888 571 q 621 710 756 710 q 353 578 458 710 q 247 292 247 447 q 315 96 247 174 q 515 18 383 18 q 631 42 579 18 q 703 106 683 65 q 768 47 768 83 q 694 -33 768 0 q 521 -67 621 -67 q 247 35 340 -67 q 153 286 153 136 q 187 465 153 376 q 281 625 221 553 q 436 742 342 697 q 642 788 531 788 q 892 701 799 788 q 986 479 986 614 q 906 249 986 346 q 742 151 825 151 q 639 244 661 151 q 486 132 575 132 m 632 317 q 643 412 636 344 q 654 501 650 479 q 568 536 611 536 q 474 480 511 536 q 438 332 438 424 q 456 242 438 278 q 507 207 474 207 q 572 235 538 207 q 632 317 606 263 z "},"A":{"ha":765,"x_min":7,"x_max":790,"o":"m 539 372 q 396 790 492 496 q 332 613 383 758 q 242 372 281 467 q 411 369 350 369 q 539 372 497 369 m 382 288 q 207 290 346 288 q 90 -29 114 56 q 26 -7 44 -19 q 7 26 7 6 q 66 182 7 43 q 210 535 125 321 q 343 917 294 750 q 401 921 369 921 q 450 909 436 921 q 479 847 464 897 q 635 389 567 565 q 790 14 743 106 q 724 -14 751 -14 q 664 24 679 -14 q 568 290 638 92 q 382 288 413 288 z "},"B":{"ha":760,"x_min":96,"x_max":697,"o":"m 311 850 q 217 844 278 850 q 222 532 222 728 q 299 529 267 529 q 557 688 557 529 q 311 850 557 850 m 378 71 q 529 122 468 71 q 590 260 590 172 q 522 408 590 357 q 353 460 453 460 q 221 453 263 460 q 203 121 221 342 q 280 85 229 100 q 378 71 331 71 m 96 74 q 118 538 118 232 q 100 918 118 796 q 321 935 203 935 q 568 879 472 935 q 664 696 664 824 q 543 503 664 557 q 697 265 697 438 q 612 60 697 133 q 403 -14 526 -14 q 96 74 201 -14 z "},"C":{"ha":836,"x_min":68,"x_max":775,"o":"m 714 186 q 775 118 775 161 q 696 27 775 68 q 500 -14 617 -14 q 186 117 304 -14 q 68 461 68 249 q 186 809 68 683 q 506 935 304 935 q 688 891 614 935 q 761 783 761 847 q 682 714 761 726 q 599 816 656 782 q 478 850 542 850 q 265 747 347 850 q 182 489 182 643 q 265 191 182 311 q 499 71 349 71 q 623 100 565 71 q 714 186 681 129 z "},"D":{"ha":882,"x_min":92,"x_max":814,"o":"m 92 74 q 114 540 111 200 q 96 918 114 783 q 311 935 179 935 q 506 911 419 935 q 663 835 592 888 q 774 689 735 783 q 814 463 814 594 q 703 120 814 254 q 386 -14 592 -14 q 92 74 197 -14 m 213 844 q 218 618 218 749 q 199 121 218 310 q 383 71 274 71 q 535 104 471 71 q 633 194 599 138 q 682 310 667 250 q 697 435 697 369 q 594 746 697 642 q 301 850 492 850 q 213 844 271 850 z "},"E":{"ha":675,"x_min":92,"x_max":633,"o":"m 210 832 q 215 538 215 771 l 325 538 q 492 543 442 538 q 497 507 497 532 q 483 464 497 475 q 436 451 468 453 q 338 450 400 450 l 215 450 q 225 86 215 147 q 324 83 286 83 q 622 115 557 83 q 633 54 633 88 q 621 18 633 29 q 396 -3 596 -3 q 176 0 218 -3 q 122 19 136 1 q 108 79 108 38 q 110 182 108 101 q 111 311 111 263 l 111 589 q 92 913 111 788 q 394 925 240 925 q 619 904 594 925 q 632 868 632 893 q 621 807 632 835 q 363 836 542 836 q 210 832 289 836 z "},"F":{"ha":632,"x_min":92,"x_max":632,"o":"m 215 436 l 215 282 q 242 7 215 94 q 176 -4 217 -4 q 122 14 136 -4 q 108 75 108 32 q 110 185 108 97 q 111 321 111 272 l 111 589 q 92 913 111 788 q 394 925 240 925 q 619 904 594 925 q 632 868 632 893 q 621 807 632 835 q 363 836 542 836 q 210 832 289 836 q 215 667 215 771 l 215 524 l 325 524 q 492 529 440 524 q 497 493 497 518 q 475 444 497 453 q 372 436 453 436 l 215 436 z "},"G":{"ha":854,"x_min":68,"x_max":785,"o":"m 775 118 q 696 27 775 68 q 500 -14 617 -14 q 186 117 304 -14 q 68 461 68 249 q 186 809 68 683 q 506 935 304 935 q 688 891 614 935 q 761 783 761 847 q 682 714 761 726 q 599 816 656 782 q 478 850 542 850 q 265 747 347 850 q 182 489 182 643 q 265 191 182 311 q 497 71 349 71 q 676 138 608 71 q 667 418 674 311 q 717 422 690 422 q 785 369 785 422 l 781 281 q 775 118 775 192 z "},"H":{"ha":871,"x_min":92,"x_max":779,"o":"m 101 321 l 101 599 q 92 921 101 794 q 149 925 115 925 q 217 872 217 925 q 214 816 217 865 q 208 691 211 767 q 206 543 206 615 q 431 540 272 540 q 649 543 582 540 l 649 614 q 639 921 647 814 q 696 925 663 925 q 764 872 764 925 q 761 816 764 864 q 756 697 758 768 q 753 561 753 625 l 753 282 q 779 7 753 94 q 714 -4 754 -4 q 660 14 674 -4 q 646 75 646 32 q 647 185 646 97 q 649 321 649 272 l 649 461 q 431 458 578 458 q 206 461 272 458 l 206 282 q 232 7 206 94 q 167 -4 207 -4 q 113 14 126 -4 q 99 75 99 32 q 100 185 99 97 q 101 321 101 272 z "},"I":{"ha":307,"x_min":92,"x_max":232,"o":"m 101 321 l 101 599 q 92 921 101 794 q 149 925 115 925 q 217 872 217 925 q 214 816 217 864 q 208 697 211 768 q 206 561 206 625 l 206 282 q 232 7 206 94 q 167 -4 207 -4 q 113 14 126 -4 q 99 75 99 32 q 100 185 99 97 q 101 321 101 272 z "},"J":{"ha":308,"x_min":-53,"x_max":217,"o":"m 4 -165 q -53 -86 -47 -165 q 22 -60 -7 -76 q 68 -27 51 -44 q 92 28 85 -10 q 101 96 100 65 q 103 189 103 126 q 102 372 103 218 q 101 599 101 525 q 92 921 101 794 q 149 925 115 925 q 217 872 217 925 q 214 821 217 865 q 208 710 211 776 q 206 585 206 644 l 206 154 q 189 18 206 78 q 148 -75 172 -42 q 94 -130 124 -108 q 42 -158 64 -151 q 4 -165 21 -165 z "},"K":{"ha":715,"x_min":92,"x_max":715,"o":"m 139 925 q 217 872 217 925 q 214 813 217 865 q 208 678 211 760 q 206 519 206 596 q 439 731 325 615 q 578 922 553 847 q 650 869 650 910 q 553 726 650 829 q 325 514 456 624 q 579 135 479 257 q 606 105 596 114 q 635 86 615 96 q 678 76 654 76 q 710 81 694 76 q 715 46 715 61 q 692 1 715 17 q 633 -14 668 -14 q 508 57 574 -14 q 438 145 478 90 q 369 242 397 200 q 297 353 342 283 q 239 443 253 422 q 206 418 215 425 l 206 282 q 232 7 206 94 q 165 -4 210 -4 q 113 15 126 -4 q 99 75 99 33 q 100 185 99 97 q 101 321 101 272 l 101 599 q 92 921 101 794 q 139 925 119 925 z "},"L":{"ha":596,"x_min":92,"x_max":596,"o":"m 101 311 l 101 599 q 92 921 101 794 q 149 925 115 925 q 217 872 217 925 q 214 816 217 864 q 208 697 211 768 q 206 561 206 625 l 206 436 q 215 86 206 147 q 307 83 274 83 q 586 115 524 83 q 596 54 596 86 q 583 18 596 29 q 371 -3 560 -3 q 163 0 204 -3 q 112 19 125 1 q 99 79 99 38 q 100 182 99 101 q 101 311 101 263 z "},"M":{"ha":1107,"x_min":92,"x_max":1015,"o":"m 989 606 l 989 282 q 1015 7 989 94 q 950 -4 990 -4 q 896 14 910 -4 q 882 75 882 32 q 883 172 882 85 q 884 422 883 260 q 885 775 885 583 q 606 3 757 518 q 568 -3 589 -3 q 499 33 514 -3 q 373 367 465 108 q 208 772 281 626 l 208 282 q 235 7 208 94 q 183 -4 210 -4 q 129 14 143 -4 q 115 75 115 32 q 117 185 115 97 q 118 321 118 272 l 118 671 q 92 915 118 826 q 172 926 136 926 q 271 860 231 926 q 381 629 325 765 q 467 399 436 493 q 556 128 499 306 q 672 500 599 300 q 835 860 744 700 q 936 926 872 926 q 1014 915 983 926 q 989 606 989 832 z "},"N":{"ha":874,"x_min":92,"x_max":767,"o":"m 765 1 q 719 -4 743 -4 q 647 33 672 -4 q 450 369 590 121 q 210 767 310 617 q 208 282 208 714 q 235 7 208 94 q 183 -4 210 -4 q 129 14 143 -4 q 115 75 115 32 q 117 185 115 97 q 118 321 118 272 l 118 599 q 92 915 118 831 q 157 926 118 926 q 201 917 185 926 q 235 886 217 907 q 435 590 304 807 q 674 165 565 374 q 667 324 669 215 q 665 515 665 432 l 665 599 q 656 921 665 794 q 699 925 679 925 q 767 872 767 925 q 764 816 767 864 q 758 697 761 768 q 756 561 756 625 l 756 324 q 765 1 756 128 z "},"O":{"ha":989,"x_min":68,"x_max":921,"o":"m 493 -14 q 183 115 299 -14 q 68 460 68 244 q 183 806 68 678 q 493 935 299 935 q 805 806 689 935 q 921 460 921 678 q 805 115 921 244 q 493 -14 689 -14 m 804 435 q 787 583 804 513 q 735 715 769 654 q 638 813 700 776 q 494 850 575 850 q 267 752 351 850 q 182 503 182 654 q 199 347 182 421 q 251 210 217 274 q 348 108 286 146 q 492 71 410 71 q 723 172 642 71 q 804 435 804 272 z "},"P":{"ha":700,"x_min":92,"x_max":671,"o":"m 353 422 q 501 477 447 422 q 554 625 554 532 q 494 801 554 753 q 308 850 435 850 q 208 844 272 850 q 214 561 214 764 l 214 457 q 353 422 275 422 m 110 321 l 110 599 q 92 918 110 790 q 299 935 194 935 q 671 635 671 935 q 584 414 671 490 q 381 338 497 338 q 214 382 282 338 l 214 282 q 240 7 214 94 q 175 -4 215 -4 q 121 14 135 -4 q 107 75 107 32 q 108 185 107 97 q 110 321 110 272 z "},"Q":{"ha":989,"x_min":68,"x_max":921,"o":"m 804 435 q 787 583 804 513 q 735 715 769 654 q 638 813 700 776 q 494 850 575 850 q 267 752 351 850 q 182 503 182 654 q 199 347 182 421 q 251 210 217 274 q 348 108 286 146 q 492 71 410 71 q 723 172 642 71 q 804 435 804 272 m 451 -12 q 172 128 275 1 q 68 460 68 256 q 183 806 68 678 q 493 935 299 935 q 805 806 689 935 q 921 460 921 678 q 817 131 921 257 q 538 -11 714 4 q 597 -103 554 -72 q 696 -133 639 -133 q 781 -122 751 -133 q 849 -81 810 -111 q 876 -110 863 -89 q 889 -144 889 -131 q 833 -199 889 -179 q 706 -218 776 -218 q 537 -162 604 -218 q 451 -12 469 -107 z "},"R":{"ha":736,"x_min":92,"x_max":729,"o":"m 590 117 q 679 76 626 76 q 717 81 696 76 q 729 39 729 56 q 625 -14 729 -14 q 572 -1 599 -14 q 519 42 546 11 q 474 96 493 72 q 428 169 456 119 q 390 241 401 219 q 353 320 379 263 q 322 386 326 378 q 283 417 283 392 q 290 454 283 429 q 356 447 329 447 q 501 502 449 447 q 554 651 554 557 q 496 806 554 763 q 317 850 438 850 q 208 844 272 850 q 214 561 214 764 l 214 282 q 240 7 214 94 q 175 -4 215 -4 q 121 14 135 -4 q 107 75 107 32 q 108 185 107 97 q 110 321 110 272 l 110 599 q 92 918 110 790 q 299 935 194 935 q 671 658 671 935 q 608 474 671 544 q 443 385 546 404 q 467 333 443 383 q 499 267 490 283 q 528 213 508 250 q 562 153 547 175 q 590 117 576 131 z "},"S":{"ha":719,"x_min":63,"x_max":657,"o":"m 557 740 q 472 816 533 786 q 346 846 411 846 q 227 807 275 846 q 179 693 179 768 q 215 599 179 636 q 303 548 250 563 q 418 513 356 533 q 533 469 481 492 q 622 393 586 447 q 657 258 657 339 q 629 131 657 186 q 554 46 601 76 q 452 1 507 15 q 336 -14 397 -14 q 145 24 228 -14 q 63 117 63 63 q 74 149 63 135 q 97 171 86 164 q 133 190 108 178 q 228 106 160 139 q 368 74 297 74 q 501 116 446 74 q 557 238 557 158 q 508 341 557 303 q 388 399 458 379 q 248 442 318 418 q 128 522 178 465 q 79 671 79 578 q 163 867 79 799 q 378 935 247 935 q 555 901 474 935 q 636 810 636 868 q 557 740 636 754 z "},"T":{"ha":646,"x_min":0,"x_max":646,"o":"m 272 321 l 272 599 q 268 836 272 728 q 4 831 71 836 q 0 868 0 843 q 15 906 0 896 q 61 917 29 915 q 210 918 96 918 l 374 918 q 642 922 593 918 q 646 886 646 910 q 631 849 646 858 q 585 838 617 839 q 386 836 542 836 q 376 561 376 638 l 376 282 q 403 7 376 94 q 338 -4 378 -4 q 283 14 297 -4 q 269 75 269 32 q 271 185 269 97 q 272 321 272 272 z "},"U":{"ha":894,"x_min":100,"x_max":803,"o":"m 100 914 q 163 925 128 925 q 222 909 203 925 q 240 854 240 893 q 230 591 240 794 q 219 275 219 388 q 276 126 219 178 q 406 75 332 75 q 549 108 474 75 q 671 186 624 142 q 672 234 671 196 q 672 365 672 272 q 672 599 672 457 q 663 921 672 794 q 719 925 686 925 q 788 872 788 925 q 785 821 788 869 q 779 669 782 772 q 776 429 776 565 q 781 141 776 214 q 803 7 785 68 q 738 -4 778 -4 q 684 13 699 -4 q 669 78 669 31 l 669 93 q 536 16 614 46 q 393 -14 458 -14 q 187 48 263 -14 q 111 267 111 110 q 117 489 111 349 q 124 696 124 629 q 100 914 124 828 z "},"V":{"ha":775,"x_min":-28,"x_max":761,"o":"m 643 926 q 701 935 682 935 q 747 919 733 935 q 761 867 761 904 q 664 458 761 714 q 465 72 567 201 q 407 11 431 26 q 351 -4 383 -4 q 306 -1 336 -4 q 154 511 261 222 q -28 874 47 800 q 72 925 31 925 q 140 865 115 925 q 268 514 194 742 q 383 118 342 286 q 557 453 465 210 q 649 857 649 697 q 643 926 649 907 z "},"W":{"ha":1308,"x_min":-28,"x_max":1281,"o":"m 1163 926 q 1221 935 1201 935 q 1266 922 1251 935 q 1281 875 1281 908 q 1190 459 1281 714 q 1000 72 1099 204 q 944 11 965 26 q 892 -4 922 -4 q 847 -1 875 -4 q 674 611 793 290 q 563 306 629 457 q 435 72 497 156 q 378 11 400 26 q 326 -4 357 -4 q 283 -1 311 -4 q 142 510 243 221 q -28 874 42 800 q 74 925 29 925 q 139 865 114 925 q 256 519 190 744 q 361 118 321 294 q 519 452 436 208 q 603 856 603 696 q 597 926 603 906 q 656 935 636 935 q 701 922 686 935 q 715 875 715 908 q 708 796 715 835 q 925 118 800 651 q 1084 453 1000 210 q 1168 856 1168 696 q 1163 926 1168 906 z "},"X":{"ha":800,"x_min":35,"x_max":792,"o":"m 35 60 q 343 479 35 142 q 42 869 139 807 q 144 935 94 935 q 215 876 174 935 q 417 563 304 749 q 556 766 494 657 q 625 933 617 875 q 724 856 724 914 q 643 703 724 818 q 467 481 563 589 q 792 46 683 111 q 696 -14 739 -14 q 624 40 663 -14 q 393 396 542 149 q 232 192 314 319 q 131 -14 150 64 q 35 60 35 4 z "},"Y":{"ha":696,"x_min":-14,"x_max":689,"o":"m 689 871 q 583 674 689 836 q 399 418 478 513 l 399 300 q 425 7 399 97 q 360 -4 400 -4 q 306 14 319 -4 q 292 75 292 32 q 294 322 293 203 l 294 408 q -14 860 93 788 q 3 881 -10 865 q 22 900 17 896 q 36 913 26 904 q 54 924 46 921 q 74 926 63 926 q 140 879 108 926 q 363 501 224 758 q 505 735 429 589 q 583 933 581 882 q 689 871 689 926 z "},"Z":{"ha":743,"x_min":36,"x_max":715,"o":"m 693 900 q 715 844 715 875 q 692 781 715 811 l 131 79 q 243 74 181 74 q 682 118 513 74 q 696 60 696 82 q 672 17 696 28 q 596 0 649 6 q 379 -8 513 -8 q 61 8 186 -8 q 36 78 36 42 q 71 165 36 122 l 594 833 q 425 842 529 842 q 78 804 229 842 q 64 863 64 838 q 104 913 64 901 q 281 926 163 926 q 693 900 536 926 z "},"[":{"ha":528,"x_min":208,"x_max":472,"o":"m 300 922 l 300 -186 q 411 -183 353 -183 q 459 -195 446 -183 q 472 -232 472 -207 q 467 -264 472 -249 l 208 -264 l 208 1000 l 467 1000 q 472 968 472 989 q 457 930 472 940 q 411 919 442 919 q 300 922 351 919 z "},"\\":{"ha":358,"x_min":49,"x_max":300,"o":"m 179 157 q 49 993 49 972 q 99 1031 49 1031 q 128 1026 115 1031 q 169 704 139 907 q 300 -131 300 -121 q 254 -169 300 -169 q 221 -165 239 -169 q 179 157 210 -46 z "},"]":{"ha":486,"x_min":42,"x_max":306,"o":"m 214 -186 l 214 922 q 103 919 163 919 q 57 930 72 919 q 42 968 42 940 q 47 1000 42 988 l 306 1000 l 306 -264 l 47 -264 q 42 -232 42 -249 q 55 -195 42 -207 q 103 -183 68 -183 q 214 -186 161 -183 z "},"^":{"ha":653,"x_min":35,"x_max":618,"o":"m 328 808 q 72 579 114 579 q 35 601 57 579 q 166 767 67 656 q 326 938 265 878 q 487 767 388 878 q 618 601 586 656 q 582 579 596 579 q 558 588 574 579 q 523 615 543 597 q 483 649 503 632 q 439 692 464 667 q 398 735 414 718 q 358 776 382 751 q 328 808 335 801 z "},"_":{"ha":743,"x_min":0,"x_max":743,"o":"m 743 -153 q 729 -194 743 -178 q 693 -211 715 -211 q 597 -206 672 -211 q 483 -200 522 -200 l 285 -200 q 4 -211 126 -200 q 0 -169 0 -190 q 13 -129 0 -147 q 50 -111 25 -111 q 138 -116 54 -111 q 282 -121 221 -121 l 479 -121 q 739 -111 656 -121 q 743 -153 743 -124 z "},"`":{"ha":279,"x_min":-69,"x_max":194,"o":"m -21 975 q 88 874 31 918 q 169 810 144 831 q 194 769 194 790 q 172 729 194 749 q 66 796 133 758 q -35 858 -1 833 q -69 911 -69 883 q -21 975 -69 947 z "},"a":{"ha":649,"x_min":8,"x_max":661,"o":"m 432 293 q 319 589 406 356 q 210 294 250 389 q 338 292 293 292 q 432 293 403 292 m 315 218 q 181 221 286 218 q 151 147 174 204 q 114 52 128 90 q 90 -22 100 14 q 8 21 8 -11 q 22 67 8 35 q 67 173 35 99 q 129 322 100 247 q 271 714 238 601 q 322 718 293 718 q 365 709 353 718 q 393 660 378 700 q 453 498 404 631 q 531 294 503 365 q 661 10 597 131 q 599 -10 622 -10 q 542 18 557 -10 q 460 221 533 38 q 315 218 340 218 z "},"b":{"ha":678,"x_min":97,"x_max":600,"o":"m 282 653 l 211 649 q 215 418 215 583 q 274 415 249 415 q 467 532 467 415 q 282 653 467 653 m 332 64 q 448 101 401 64 q 494 206 494 139 q 442 316 494 278 q 315 354 390 354 q 215 349 249 354 q 200 103 215 236 q 332 64 253 64 m 97 57 q 115 418 115 181 q 101 715 115 622 q 286 728 179 728 q 493 685 413 728 q 574 542 574 642 q 474 392 574 433 q 600 206 600 342 q 529 47 600 104 q 354 -10 458 -10 q 97 57 185 -10 z "},"c":{"ha":717,"x_min":67,"x_max":656,"o":"m 601 157 q 656 94 656 135 q 590 22 656 53 q 426 -10 525 -10 q 165 92 264 -10 q 67 358 67 193 q 165 630 67 532 q 432 728 263 728 q 583 694 522 728 q 644 610 644 660 q 568 546 644 558 q 503 624 549 597 q 408 651 458 651 q 242 574 307 651 q 176 381 176 496 q 242 156 176 246 q 425 65 307 65 q 526 89 478 65 q 601 157 574 113 z "},"d":{"ha":767,"x_min":97,"x_max":700,"o":"m 97 57 q 115 421 113 150 q 101 715 115 607 q 281 728 168 728 q 442 710 371 728 q 574 651 514 692 q 667 536 635 610 q 700 360 700 463 q 607 94 700 199 q 343 -10 514 -10 q 97 57 183 -10 m 211 649 q 215 478 215 593 q 200 104 215 242 q 344 67 257 67 q 463 92 413 67 q 539 159 513 117 q 577 247 565 201 q 589 340 589 292 q 509 574 589 496 q 281 653 429 653 q 260 652 271 653 q 234 650 249 651 q 211 649 219 649 z "},"e":{"ha":621,"x_min":114,"x_max":569,"o":"m 226 639 q 231 424 231 606 l 319 424 q 453 428 413 424 q 457 397 457 417 q 445 359 457 369 q 408 347 433 349 q 329 346 379 346 l 231 346 q 239 76 231 122 q 319 74 289 74 q 560 99 503 74 q 569 46 569 74 q 558 14 569 24 q 369 -1 538 -1 q 263 -1 336 -1 q 186 0 189 0 q 140 15 151 1 q 128 61 128 29 q 129 147 128 81 q 131 250 131 213 l 131 463 q 114 711 131 621 q 368 721 250 721 q 557 704 536 721 q 568 672 568 694 q 558 619 568 644 q 350 642 492 642 q 226 639 296 642 z "},"f":{"ha":568,"x_min":114,"x_max":568,"o":"m 231 335 l 231 217 q 253 3 231 71 q 192 -6 225 -6 q 141 8 154 -6 q 128 54 128 22 q 129 140 128 72 q 131 246 131 208 l 131 464 q 114 711 131 621 q 368 721 250 721 q 557 704 536 721 q 568 672 568 694 q 558 619 568 644 q 350 642 492 642 q 226 639 304 642 q 231 500 231 601 l 231 413 l 319 413 q 453 417 413 413 q 457 385 457 406 q 439 342 457 350 q 357 335 421 335 l 231 335 z "},"g":{"ha":733,"x_min":67,"x_max":664,"o":"m 656 92 q 590 22 656 53 q 426 -10 524 -10 q 165 92 264 -10 q 67 358 67 193 q 165 630 67 532 q 432 728 263 728 q 583 694 522 728 q 644 610 644 660 q 568 546 644 558 q 503 625 547 599 q 408 651 458 651 q 242 574 307 651 q 176 381 176 496 q 241 156 176 246 q 421 65 306 65 q 560 108 504 65 q 551 332 557 235 q 599 335 574 335 q 664 294 664 335 q 660 222 664 293 q 656 92 656 150 z "},"h":{"ha":814,"x_min":126,"x_max":701,"o":"m 135 250 l 135 467 q 126 717 135 611 q 179 721 151 721 q 244 679 244 721 q 242 635 244 674 q 237 538 239 596 q 235 426 235 479 q 410 425 293 425 q 579 426 522 425 l 579 471 q 571 717 578 617 q 624 721 596 721 q 689 679 689 721 q 686 636 689 674 q 681 543 683 599 q 679 438 679 488 l 679 219 q 701 6 679 74 q 640 -3 681 -3 q 590 11 603 -3 q 576 58 576 25 q 578 143 576 75 q 579 250 579 211 l 579 353 q 408 351 521 351 q 235 353 292 351 l 235 219 q 257 6 235 74 q 196 -3 236 -3 q 145 11 158 -3 q 132 58 132 25 q 133 143 132 75 q 135 250 135 211 z "},"i":{"ha":372,"x_min":128,"x_max":258,"o":"m 136 250 l 136 467 q 128 717 136 611 q 181 721 153 721 q 246 679 246 721 q 244 636 246 674 q 239 543 242 599 q 236 438 236 488 l 236 219 q 258 6 236 74 q 197 -3 238 -3 q 147 11 160 -3 q 133 58 133 25 q 135 143 133 75 q 136 250 136 211 z "},"j":{"ha":358,"x_min":14,"x_max":244,"o":"m 60 -128 q 14 -53 17 -128 q 117 0 97 -36 q 136 136 136 36 q 135 294 136 178 q 135 467 135 410 q 126 717 135 632 q 181 721 150 721 q 244 679 244 721 q 242 640 244 674 q 238 554 240 606 q 236 456 236 503 l 236 119 q 216 -3 236 49 q 165 -81 196 -56 q 108 -117 135 -106 q 60 -128 82 -128 z "},"k":{"ha":639,"x_min":114,"x_max":622,"o":"m 313 388 q 500 110 431 194 q 586 67 540 67 q 613 69 600 67 q 622 36 622 54 q 600 1 622 14 q 546 -11 578 -11 q 429 44 479 -11 q 378 108 407 69 q 330 177 350 147 q 276 257 310 207 q 232 325 243 307 l 222 318 l 222 219 q 244 6 222 74 q 183 -3 224 -3 q 133 11 146 -3 q 119 58 119 25 q 121 143 119 75 q 122 250 122 211 l 122 467 q 114 717 122 611 q 167 721 139 721 q 232 679 232 721 q 230 636 232 674 q 225 540 228 599 q 222 425 222 481 q 391 572 307 485 q 494 719 475 660 q 564 671 564 710 q 485 553 564 642 q 313 388 407 465 z "},"l":{"ha":538,"x_min":114,"x_max":538,"o":"m 122 242 l 122 467 q 114 718 122 611 q 168 721 136 721 q 232 679 232 721 q 230 636 232 674 q 225 543 228 599 q 222 438 222 488 l 222 342 q 231 76 222 122 q 304 74 278 74 q 529 99 478 74 q 538 46 538 72 q 528 14 538 24 q 349 -1 507 -1 q 248 -1 318 -1 q 174 0 178 0 q 131 15 142 1 q 119 61 119 29 q 121 140 119 78 q 122 242 122 203 z "},"m":{"ha":992,"x_min":114,"x_max":878,"o":"m 857 472 l 857 219 q 878 4 857 74 q 821 -3 860 -3 q 769 11 782 -3 q 756 58 756 25 q 756 267 756 96 q 757 574 757 439 q 544 1 665 383 q 500 -3 528 -3 q 444 25 457 0 q 343 279 414 88 q 222 574 272 471 l 222 219 q 244 4 222 74 q 194 -3 217 -3 q 146 11 158 -3 q 133 58 133 25 q 134 143 133 75 q 135 250 135 211 l 135 522 q 114 714 135 644 q 186 722 156 722 q 275 669 243 722 q 363 497 319 600 q 432 320 407 393 q 499 117 457 247 q 719 671 583 454 q 808 722 750 722 q 878 714 842 722 q 857 472 857 649 z "},"n":{"ha":803,"x_min":114,"x_max":676,"o":"m 675 0 q 632 -3 647 -3 q 565 25 585 -3 q 408 281 524 89 q 219 579 293 472 q 222 251 222 475 q 244 4 222 68 q 196 -3 219 -3 q 146 11 158 -3 q 133 58 133 25 q 134 143 133 75 q 135 250 135 211 l 135 467 q 114 714 135 647 q 174 722 139 722 q 246 690 217 722 q 404 471 300 635 q 588 161 508 307 q 581 460 581 261 q 572 718 581 610 q 613 721 594 721 q 676 679 676 721 q 674 636 676 674 q 670 543 672 599 q 668 438 668 488 l 668 251 q 675 0 668 89 z "},"o":{"ha":842,"x_min":67,"x_max":775,"o":"m 419 -10 q 163 90 258 -10 q 67 358 67 190 q 163 628 67 528 q 419 728 258 728 q 678 628 582 728 q 775 358 775 528 q 678 90 775 190 q 419 -10 582 -10 m 664 339 q 642 486 664 418 q 562 603 619 554 q 421 651 504 651 q 242 578 308 651 q 176 390 176 504 q 199 236 176 307 q 278 115 221 165 q 419 65 335 65 q 600 141 536 65 q 664 339 664 217 z "},"p":{"ha":635,"x_min":114,"x_max":599,"o":"m 335 333 q 447 374 407 333 q 488 485 488 415 q 442 617 488 581 q 301 653 397 653 q 225 649 296 653 q 229 439 229 557 l 229 356 q 335 333 274 333 m 128 250 l 128 467 q 114 715 128 617 q 288 728 189 728 q 599 492 599 728 q 528 317 599 376 q 364 257 458 257 q 229 292 282 257 l 229 215 q 251 4 229 72 q 190 -3 226 -3 q 140 11 153 -3 q 126 58 126 25 q 127 143 126 75 q 128 250 128 211 z "},"q":{"ha":840,"x_min":67,"x_max":774,"o":"m 664 339 q 603 558 664 465 q 419 651 543 651 q 241 578 307 651 q 175 390 175 504 q 197 236 175 307 q 276 115 219 165 q 418 65 333 65 q 599 141 535 65 q 664 339 664 217 m 376 -10 q 149 101 232 3 q 67 358 67 199 q 161 628 67 529 q 419 728 256 728 q 678 628 582 728 q 774 358 774 528 q 688 101 774 200 q 458 -8 603 3 q 586 -86 486 -86 q 637 -78 614 -86 q 672 -62 660 -71 q 706 -36 685 -53 q 749 -100 749 -67 q 704 -151 749 -133 q 596 -169 660 -169 q 453 -129 514 -169 q 376 -10 393 -89 z "},"r":{"ha":689,"x_min":114,"x_max":647,"o":"m 542 97 q 608 67 572 67 q 638 69 615 67 q 647 33 647 50 q 557 -10 647 -10 q 479 20 517 -10 q 407 106 442 50 q 353 201 372 163 q 308 299 335 239 q 282 326 282 304 q 292 368 282 340 q 344 361 322 361 q 449 401 408 361 q 489 508 489 440 q 444 621 489 589 q 308 653 400 653 q 225 649 300 653 q 231 431 231 585 l 231 217 q 251 4 231 72 q 190 -3 228 -3 q 140 11 153 -3 q 126 58 126 25 q 128 143 126 75 q 129 250 129 211 l 129 467 q 114 715 129 619 q 289 728 189 728 q 600 510 600 728 q 551 369 600 424 q 419 297 501 315 q 542 97 504 135 z "},"s":{"ha":631,"x_min":63,"x_max":564,"o":"m 475 561 q 407 626 456 600 q 306 651 358 651 q 210 623 250 651 q 171 540 171 594 q 200 470 171 497 q 273 432 229 443 q 367 406 317 421 q 462 373 418 390 q 535 313 506 356 q 564 208 564 271 q 485 43 564 96 q 294 -10 407 -10 q 133 21 203 -10 q 63 96 63 51 q 125 161 63 131 q 203 93 147 119 q 319 67 260 67 q 426 97 381 67 q 471 182 471 126 q 431 259 471 231 q 333 301 390 288 q 217 334 275 315 q 119 398 160 353 q 79 517 79 443 q 150 674 79 619 q 331 728 221 728 q 478 701 411 728 q 546 625 546 674 q 475 561 546 575 z "},"t":{"ha":581,"x_min":21,"x_max":560,"o":"m 242 250 l 242 467 q 239 639 242 531 q 24 635 76 639 q 21 669 21 642 q 33 704 21 694 q 71 714 44 714 q 126 715 82 714 q 197 715 169 715 l 332 715 q 557 718 517 715 q 560 685 560 704 q 510 639 560 639 l 349 639 q 347 587 349 624 q 343 511 344 550 q 342 438 342 472 l 342 219 q 364 6 342 74 q 303 -3 343 -3 q 252 11 265 -3 q 239 58 239 25 q 240 143 239 75 q 242 250 242 211 z "},"u":{"ha":806,"x_min":119,"x_max":706,"o":"m 119 713 q 178 721 144 721 q 233 708 215 721 q 250 665 250 696 q 241 464 250 619 q 232 221 232 308 q 275 110 232 147 q 376 72 318 72 q 488 97 429 72 q 582 156 546 122 q 583 191 582 163 q 583 289 583 219 q 583 467 583 358 q 575 717 583 611 q 629 721 597 721 q 693 679 693 721 q 691 640 693 678 q 686 521 689 601 q 683 335 683 440 q 687 110 683 167 q 706 4 690 53 q 644 -3 682 -3 q 594 10 608 -3 q 581 60 581 24 l 581 76 q 472 15 535 39 q 357 -10 410 -10 q 190 38 251 -10 q 128 207 128 85 q 133 380 128 271 q 138 542 138 489 q 119 713 138 647 z "},"v":{"ha":697,"x_min":14,"x_max":669,"o":"m 558 721 q 610 728 581 728 q 657 715 644 728 q 669 668 669 703 q 590 356 669 551 q 425 54 511 160 q 374 7 393 17 q 315 -3 354 -3 q 286 0 299 -3 q 163 398 250 174 q 14 681 75 622 q 104 719 58 719 q 139 707 125 719 q 171 660 153 694 q 269 405 211 575 q 361 113 328 235 q 499 381 436 208 q 563 679 563 553 q 558 721 563 704 z "},"w":{"ha":1124,"x_min":14,"x_max":1096,"o":"m 985 721 q 1039 728 1007 728 q 1083 717 1069 728 q 1096 678 1096 706 q 1019 356 1096 556 q 860 56 942 157 q 811 9 832 21 q 763 -3 790 -3 q 722 0 735 -3 q 596 413 683 186 q 413 56 515 182 q 364 9 385 21 q 315 -3 343 -3 q 275 0 289 -3 q 157 397 242 172 q 14 681 72 622 q 103 721 58 721 q 164 674 142 721 q 262 414 207 582 q 350 113 317 246 q 481 376 419 204 q 542 667 542 549 q 538 721 542 706 q 592 728 560 728 q 635 717 622 728 q 649 678 649 706 q 636 575 649 640 q 797 113 715 426 q 927 377 865 206 q 989 667 989 549 q 985 721 989 706 z "},"x":{"ha":690,"x_min":43,"x_max":681,"o":"m 43 46 q 300 372 43 122 q 50 679 113 632 q 143 728 94 728 q 213 681 178 728 q 367 449 258 624 q 470 594 424 514 q 528 728 517 674 q 626 667 626 715 q 559 544 626 631 q 411 376 492 457 q 681 38 601 88 q 593 -10 636 -10 q 525 31 556 -10 q 343 299 444 132 q 217 138 276 226 q 140 -10 157 50 q 43 46 43 -1 z "},"y":{"ha":589,"x_min":0,"x_max":578,"o":"m 578 672 q 499 525 578 639 q 349 329 419 411 l 349 225 q 369 6 349 78 q 308 -3 349 -3 q 258 11 271 -3 q 246 58 246 25 q 247 133 246 63 q 247 250 247 203 l 247 324 q 0 667 85 613 q 83 722 47 722 q 144 685 118 722 q 315 406 231 564 q 425 586 371 482 q 482 728 479 690 q 578 672 578 722 z "},"z":{"ha":654,"x_min":44,"x_max":619,"o":"m 601 701 q 619 658 619 681 q 600 608 619 632 l 144 68 q 225 65 183 65 q 589 100 444 65 q 600 50 600 67 q 580 13 600 22 q 517 0 560 4 q 333 -6 456 -6 q 65 6 176 -6 q 44 60 44 33 q 72 128 44 96 l 497 642 q 371 646 460 646 q 83 617 208 646 q 72 668 72 647 q 104 711 72 701 q 251 722 151 722 q 601 701 456 722 z "},"{":{"ha":592,"x_min":97,"x_max":521,"o":"m 253 397 q 318 339 288 385 q 349 250 349 293 l 349 -26 q 351 -68 349 -56 q 363 -94 353 -81 q 394 -111 372 -107 q 454 -115 415 -115 q 505 -126 489 -115 q 521 -164 521 -136 q 515 -196 521 -185 q 465 -197 497 -197 q 300 -160 344 -197 q 256 -43 256 -124 l 256 247 q 215 326 256 289 q 97 363 175 363 l 97 432 q 216 469 175 432 q 257 549 257 507 l 257 839 q 301 956 257 919 q 465 993 344 993 q 515 992 497 993 q 521 960 521 981 q 505 922 521 932 q 454 911 489 911 q 365 893 382 911 q 347 822 347 875 l 347 546 q 317 456 347 503 q 253 397 288 410 z "},"|":{"ha":743,"x_min":318,"x_max":425,"o":"m 329 189 l 329 617 q 318 1018 329 944 q 360 1022 340 1022 q 424 969 424 1022 q 422 895 424 964 q 417 713 419 826 q 414 488 414 600 l 414 60 q 425 -342 414 -268 q 383 -346 403 -346 q 319 -293 319 -346 q 322 -219 319 -287 q 327 -37 325 -150 q 329 189 329 76 z "},"}":{"ha":561,"x_min":42,"x_max":465,"o":"m 310 397 q 245 456 275 410 q 215 546 215 503 l 215 822 q 213 863 215 850 q 201 890 211 876 q 169 907 190 903 q 108 911 147 911 q 58 922 74 911 q 42 960 42 932 q 47 992 42 981 q 97 993 65 993 q 262 956 218 993 q 306 839 306 919 l 306 549 q 347 469 306 507 q 465 432 388 432 l 465 363 q 347 326 388 363 q 307 247 307 289 l 307 -43 q 263 -160 307 -124 q 97 -197 218 -197 q 47 -196 65 -197 q 42 -164 42 -185 q 58 -126 42 -136 q 108 -115 74 -115 q 169 -111 147 -115 q 200 -94 190 -107 q 212 -68 210 -81 q 214 -26 214 -56 l 214 250 q 244 339 214 293 q 310 397 275 385 z "},"~":{"ha":758,"x_min":56,"x_max":703,"o":"m 56 371 q 192 457 56 457 q 373 429 263 457 q 535 401 483 401 q 676 450 626 401 q 703 382 703 415 q 653 317 703 338 q 535 296 603 296 q 386 324 492 296 q 224 351 281 351 q 82 303 132 351 q 56 371 56 338 z "},"¡":{"ha":363,"x_min":111,"x_max":279,"o":"m 135 706 q 148 718 135 706 q 194 731 160 731 q 254 706 229 731 q 279 643 279 681 q 254 580 279 606 q 194 554 229 554 q 135 580 160 554 q 111 643 111 606 q 135 706 111 681 m 140 -8 q 153 108 140 21 q 165 268 165 194 l 165 314 q 143 440 165 396 q 194 454 171 454 q 251 403 250 454 q 253 287 253 389 q 258 90 253 185 q 278 -47 264 -4 q 206 -61 239 -61 q 140 -8 140 -61 z "},"¢":{"ha":743,"x_min":93,"x_max":663,"o":"m 378 69 l 378 571 q 249 488 299 550 q 199 319 199 425 q 249 151 199 214 q 378 69 299 89 m 603 483 q 533 554 569 529 q 440 579 497 579 l 432 579 l 432 61 l 446 61 q 603 157 535 61 q 663 96 663 143 q 588 13 663 43 q 443 -17 513 -17 l 432 -17 q 439 -133 433 -64 l 418 -136 q 378 -99 378 -136 l 378 -12 q 174 88 256 6 q 93 322 93 171 q 174 551 93 468 q 376 651 256 633 q 371 783 376 706 q 394 788 386 788 q 432 750 432 788 l 432 657 l 443 657 q 588 627 513 657 q 663 544 663 597 q 603 483 663 497 z "},"£":{"ha":743,"x_min":94,"x_max":647,"o":"m 567 468 q 572 436 572 457 q 555 397 572 406 q 500 388 538 388 q 408 389 442 388 q 413 347 413 368 q 204 76 413 219 q 321 72 236 72 q 626 117 507 72 q 647 61 647 86 q 610 14 647 29 q 407 -4 560 -4 q 107 13 199 -4 q 94 53 94 29 q 96 68 94 63 q 248 190 193 118 q 303 325 303 263 q 290 393 303 353 q 136 388 201 393 q 132 410 132 400 q 175 444 132 442 q 224 447 189 444 q 268 449 258 449 q 246 490 261 463 q 223 533 231 518 q 208 572 215 549 q 201 614 201 594 q 262 745 201 685 q 415 806 322 806 q 490 785 456 806 q 524 729 524 765 q 476 671 524 693 q 383 718 446 718 q 319 698 346 718 q 293 640 293 678 q 307 586 293 615 q 347 517 321 557 q 385 453 372 478 q 567 468 507 460 z "},"¥":{"ha":743,"x_min":32,"x_max":671,"o":"m 413 328 l 413 254 q 640 261 561 254 l 643 240 q 606 200 643 200 l 413 200 q 438 -3 415 58 q 385 -14 415 -14 q 317 54 317 -14 q 318 200 318 121 l 288 200 q 92 193 169 200 q 88 217 88 208 q 125 254 88 254 l 319 254 l 319 324 l 311 339 l 288 339 q 92 332 169 339 q 88 356 88 346 q 125 393 88 393 l 282 393 q 188 557 228 493 q 32 744 104 689 q 113 800 67 800 q 171 753 140 800 q 383 403 282 589 q 514 620 444 485 q 586 804 583 756 q 606 806 592 806 q 671 751 671 806 q 603 603 671 724 q 468 393 536 483 q 640 400 557 393 l 643 379 q 606 339 643 339 l 424 339 l 413 328 z "},"¦":{"ha":743,"x_min":318,"x_max":425,"o":"m 329 742 l 329 783 q 318 1019 329 946 q 360 1024 340 1024 q 424 971 424 1024 q 419 871 424 964 q 414 733 414 778 l 414 679 q 425 413 414 513 q 383 408 403 408 q 319 461 319 408 q 324 582 319 468 q 329 742 329 696 m 329 -12 l 329 31 q 318 267 329 193 q 360 271 340 271 q 424 218 424 271 q 419 119 424 211 q 414 -19 414 26 l 414 -75 q 425 -342 414 -242 q 383 -346 403 -346 q 319 -293 319 -346 q 324 -172 319 -286 q 329 -12 329 -58 z "},"§":{"ha":618,"x_min":63,"x_max":549,"o":"m 160 488 q 206 397 160 432 q 330 328 251 363 q 446 261 408 293 q 465 338 465 293 q 434 416 465 383 q 363 465 403 449 q 267 507 322 481 q 179 564 213 533 q 160 488 160 533 m 76 463 q 142 610 76 551 q 107 739 107 678 q 171 879 107 825 q 339 933 235 933 q 467 904 404 933 q 529 824 529 875 q 467 765 529 781 q 404 831 451 806 q 306 856 357 856 q 222 831 256 856 q 189 758 189 807 q 215 674 189 710 q 282 619 242 639 q 369 576 322 600 q 456 530 415 553 q 522 464 496 507 q 549 363 549 421 q 485 215 549 276 q 521 94 521 156 q 457 -49 521 10 q 279 -108 393 -108 q 128 -76 194 -108 q 63 3 63 -44 q 125 61 63 43 q 310 -29 157 -29 q 400 -3 365 -29 q 435 79 435 22 q 398 171 435 133 q 308 231 361 208 q 203 278 256 254 q 113 349 150 303 q 76 463 76 394 z "},"¨":{"ha":357,"x_min":-18,"x_max":372,"o":"m 300 724 q 250 744 271 724 q 229 799 229 765 q 251 851 229 829 q 303 872 274 872 q 351 851 331 872 q 372 799 372 829 q 350 745 372 767 q 300 724 328 724 m 53 724 q 3 744 24 724 q -18 799 -18 765 q 4 851 -18 829 q 56 872 26 872 q 104 851 83 872 q 125 799 125 829 q 103 745 125 767 q 53 724 81 724 z "},"©":{"ha":1233,"x_min":181,"x_max":1142,"o":"m 857 218 q 806 160 857 185 q 685 136 754 136 q 583 152 632 136 q 490 202 533 168 q 419 298 446 236 q 393 442 393 360 q 480 680 393 599 q 676 761 567 761 q 753 750 714 761 q 826 712 793 739 q 858 649 858 685 q 799 593 858 601 q 748 658 786 636 q 667 679 710 679 q 555 618 600 679 q 510 458 510 557 q 565 276 510 333 q 697 218 621 218 q 817 271 779 218 q 857 218 857 249 m 1042 444 q 931 742 1042 628 q 663 857 821 857 q 391 743 501 857 q 281 444 281 629 q 391 146 281 260 q 663 32 501 32 q 931 146 821 32 q 1042 444 1042 260 m 1142 444 q 1002 94 1142 236 q 663 -47 863 -47 q 319 94 458 -47 q 181 444 181 235 q 319 796 181 656 q 663 936 458 936 q 1003 796 864 936 q 1142 444 1142 656 z "},"ª":{"ha":440,"x_min":42,"x_max":426,"o":"m 246 386 q 422 396 367 386 q 426 368 426 382 q 413 328 426 343 q 376 314 400 314 q 311 319 363 314 q 233 325 260 325 q 46 314 126 325 q 42 349 42 331 q 54 381 42 367 q 92 396 67 396 q 150 391 94 396 q 246 386 206 386 m 236 636 l 285 636 q 228 789 264 683 q 171 638 190 682 q 236 636 197 636 m 303 590 q 225 589 269 589 q 153 590 181 589 q 107 471 110 482 q 50 493 50 476 q 57 517 50 500 q 81 572 64 533 q 113 650 97 610 q 186 853 169 794 q 221 856 214 856 q 258 851 247 856 q 281 825 269 846 q 311 742 286 811 q 351 636 336 672 q 421 488 389 547 q 382 478 394 478 q 339 499 346 478 q 303 590 332 519 z "},"«":{"ha":658,"x_min":56,"x_max":575,"o":"m 428 326 q 526 193 476 267 q 575 100 575 119 q 547 61 575 82 q 318 326 456 138 q 547 592 456 515 q 575 553 575 571 q 526 460 575 533 q 428 326 476 386 m 165 326 q 263 193 214 267 q 313 100 313 119 q 285 61 313 82 q 56 326 193 138 q 285 592 193 515 q 313 553 313 571 q 263 460 313 533 q 165 326 214 386 z "},"¬":{"ha":743,"x_min":69,"x_max":624,"o":"m 621 450 l 624 142 q 611 87 624 103 q 563 71 599 71 q 515 82 538 71 q 539 328 539 160 l 539 378 l 218 378 q 79 357 140 378 q 69 399 69 381 q 128 450 69 450 l 621 450 z "},"®":{"ha":843,"x_min":139,"x_max":774,"o":"m 624 427 q 658 462 624 427 q 692 611 692 497 q 624 795 692 725 q 457 865 556 865 q 289 795 357 865 q 221 611 221 725 q 289 427 221 497 q 457 357 357 357 q 624 427 556 357 m 681 842 q 727 795 681 842 q 774 611 774 749 q 681 381 774 474 q 457 288 589 288 q 231 381 322 288 q 139 611 139 474 q 231 842 139 750 q 457 935 322 935 q 681 842 589 935 m 569 500 q 600 489 581 489 q 603 474 603 483 q 569 449 603 449 q 508 483 532 449 q 476 528 504 490 q 438 583 447 567 q 407 588 421 583 l 407 551 q 418 458 407 490 q 376 451 406 451 q 333 483 333 451 q 335 519 333 488 q 336 567 336 551 l 336 663 q 331 775 336 735 q 443 782 417 782 q 593 682 593 782 q 504 589 593 607 q 569 500 532 542 m 444 618 q 501 633 478 618 q 524 682 524 649 q 438 738 524 738 q 406 735 428 738 q 407 624 407 721 q 444 618 435 618 z "},"¯":{"ha":378,"x_min":0,"x_max":378,"o":"m 378 817 q 336 765 378 765 q 308 767 332 765 q 247 772 283 769 q 178 774 210 774 l 147 774 q 3 765 64 774 q 0 803 0 779 q 42 854 0 854 q 101 850 46 854 q 183 846 157 846 l 214 846 q 375 854 306 846 q 378 817 378 836 z "},"°":{"ha":564,"x_min":67,"x_max":490,"o":"m 187 867 q 170 845 187 867 q 153 760 153 824 q 185 656 153 696 q 276 615 217 615 q 369 658 336 615 q 403 765 403 700 q 372 869 403 828 q 282 910 340 910 q 187 867 221 910 m 67 760 q 127 915 67 853 q 283 976 188 976 q 432 916 374 976 q 490 767 490 856 q 431 610 490 671 q 276 549 371 549 q 126 608 185 549 q 67 760 67 668 z "},"±":{"ha":743,"x_min":82,"x_max":661,"o":"m 633 67 q 619 25 633 42 q 583 8 606 8 q 484 14 561 8 q 367 19 407 19 q 86 8 208 19 q 82 50 82 29 q 94 90 82 72 q 132 108 107 108 q 219 103 136 108 q 364 99 303 99 q 629 108 544 99 q 633 67 633 96 m 411 444 q 657 456 561 444 q 661 414 661 443 q 647 372 661 389 q 611 356 633 356 q 516 360 588 356 q 410 365 444 365 q 421 161 410 283 q 379 157 400 157 q 338 170 356 157 q 321 207 321 183 q 325 260 321 215 q 331 367 329 304 q 86 356 210 365 q 82 397 82 376 q 94 438 82 419 q 132 456 107 456 q 208 451 142 456 q 332 446 274 447 q 321 664 332 568 q 363 668 333 668 q 404 654 388 668 q 421 618 421 640 q 416 537 421 594 q 411 444 411 479 z "},"²":{"ha":625,"x_min":83,"x_max":535,"o":"m 146 763 q 101 801 101 767 q 165 890 101 844 q 304 935 228 935 q 440 888 389 935 q 492 765 492 840 q 413 576 492 678 q 172 382 333 475 q 290 381 213 381 q 517 414 442 381 q 535 358 535 386 q 503 322 535 335 q 314 306 458 306 q 142 308 211 306 q 83 364 83 308 q 85 388 83 383 q 321 577 240 479 q 401 754 401 675 q 369 833 401 803 q 286 864 338 864 q 210 835 250 864 q 146 763 169 806 z "},"³":{"ha":589,"x_min":83,"x_max":492,"o":"m 231 656 q 351 688 311 663 q 390 769 390 713 q 367 840 390 815 q 285 864 343 864 q 149 790 210 864 q 104 835 104 799 q 133 883 104 861 q 290 935 201 935 q 433 894 386 935 q 481 786 481 854 q 361 636 481 675 q 460 573 428 615 q 492 478 492 531 q 431 346 492 403 q 256 289 369 289 q 135 313 188 289 q 83 375 83 336 q 122 417 83 404 q 264 360 176 360 q 363 391 325 360 q 401 478 401 422 q 238 603 401 603 q 220 604 226 603 q 209 613 214 606 q 204 635 204 621 q 206 654 204 647 q 231 656 221 654 z "},"´":{"ha":279,"x_min":83,"x_max":349,"o":"m 314 860 q 203 791 283 838 q 106 728 124 744 q 83 768 83 747 q 106 809 83 792 q 185 869 128 826 q 300 975 243 913 q 349 911 349 947 q 314 860 349 883 z "},"µ":{"ha":713,"x_min":76,"x_max":629,"o":"m 96 183 q 98 284 96 188 q 100 429 100 381 q 76 639 100 556 q 131 650 104 650 q 183 634 167 650 q 199 579 199 618 q 194 388 199 529 q 190 219 190 247 q 227 104 190 144 q 322 64 264 64 q 510 140 422 64 q 508 322 508 200 q 499 646 508 525 q 546 650 521 650 q 608 597 608 650 q 606 485 608 592 q 603 282 603 378 q 629 7 603 106 q 578 -4 601 -4 q 514 65 514 -4 q 414 8 472 31 q 300 -14 356 -14 q 176 28 224 -14 q 165 -71 165 -19 q 217 -340 165 -196 q 161 -351 192 -351 q 107 -333 121 -351 q 93 -272 93 -315 q 96 183 93 -81 z "},"¶":{"ha":671,"x_min":63,"x_max":643,"o":"m 563 714 l 532 714 q 514 231 514 503 q 517 81 514 196 q 519 -104 519 -35 q 506 -156 519 -137 q 451 -175 492 -175 q 397 -164 425 -175 q 421 151 421 -97 q 435 714 421 519 q 358 717 371 714 q 344 326 344 590 q 282 303 344 303 q 127 370 192 303 q 63 544 63 438 q 134 730 63 661 q 313 799 206 799 q 399 796 321 799 q 515 793 476 793 q 636 794 593 793 q 643 761 643 774 q 563 714 643 714 z "},"·":{"ha":279,"x_min":56,"x_max":224,"o":"m 199 299 q 187 286 199 299 q 140 274 175 274 q 81 299 106 274 q 56 361 56 324 q 81 424 56 399 q 140 450 106 450 q 199 424 175 450 q 224 361 224 399 q 199 299 224 324 z "},"¸":{"ha":215,"x_min":42,"x_max":257,"o":"m 128 44 l 179 38 q 154 -42 154 -37 q 155 -50 154 -46 q 158 -57 156 -54 q 163 -62 161 -60 q 169 -69 164 -65 q 176 -74 174 -72 q 183 -78 178 -75 q 192 -83 189 -82 q 257 -185 257 -121 q 209 -280 257 -237 q 90 -322 161 -322 q 42 -287 42 -322 q 60 -247 42 -265 q 103 -260 81 -260 q 172 -204 172 -260 q 130 -137 172 -172 q 88 -75 88 -101 q 128 44 88 -29 z "},"¹":{"ha":532,"x_min":97,"x_max":435,"o":"m 324 372 q 429 378 376 372 q 435 350 435 361 q 386 303 435 303 q 322 304 378 303 q 214 306 267 306 q 106 304 144 306 q 99 333 99 322 q 172 376 99 376 l 232 376 q 233 485 232 393 q 235 642 235 576 q 231 857 235 764 q 106 831 136 842 q 97 864 97 847 q 144 915 97 904 q 275 935 235 935 q 325 888 325 935 q 322 838 325 881 q 317 730 319 794 q 315 607 315 665 l 315 542 q 324 372 315 429 z "},"º":{"ha":431,"x_min":32,"x_max":417,"o":"m 218 481 q 90 531 139 481 q 42 665 42 582 q 90 801 42 750 q 218 851 139 851 q 347 801 299 851 q 396 665 396 750 q 347 531 396 581 q 218 481 299 481 m 322 654 q 294 756 322 715 q 218 797 267 797 q 143 765 169 797 q 117 676 117 732 q 144 575 117 615 q 218 535 171 535 q 294 567 267 535 q 322 654 322 600 m 236 386 q 413 396 357 386 q 417 368 417 382 q 403 328 417 343 q 367 314 390 314 q 301 319 353 314 q 224 325 250 325 q 36 314 117 325 q 32 349 32 331 q 44 381 32 367 q 82 396 57 396 q 140 391 85 396 q 236 386 196 386 z "},"»":{"ha":658,"x_min":56,"x_max":575,"o":"m 203 326 q 105 460 154 386 q 56 553 56 533 q 83 592 56 571 q 313 326 175 515 q 83 61 175 138 q 56 100 56 82 q 105 193 56 119 q 203 326 154 267 m 465 326 q 367 460 417 386 q 318 553 318 533 q 346 592 318 571 q 575 326 438 515 q 346 61 438 138 q 318 100 318 82 q 367 193 318 119 q 465 326 417 267 z "},"¼":{"ha":1269,"x_min":97,"x_max":1172,"o":"m 321 -79 l 726 733 q 864 1028 815 911 q 910 1017 889 1028 q 932 985 932 1006 q 903 917 932 978 q 828 766 879 868 q 688 487 776 664 q 517 144 599 310 q 381 -149 428 -33 q 333 -137 353 -149 q 313 -107 313 -126 q 321 -79 313 -96 m 781 257 q 988 254 826 254 q 990 517 988 364 q 942 465 978 503 q 890 408 907 428 q 842 348 874 389 q 781 257 811 307 m 985 613 q 1047 628 1001 628 q 1078 625 1056 628 q 1075 574 1078 622 q 1069 441 1072 526 q 1067 261 1067 356 q 1161 278 1133 265 q 1172 233 1172 256 q 1147 190 1172 199 q 1067 181 1125 182 q 1089 -3 1067 68 q 1046 -14 1067 -14 q 997 3 1010 -14 q 985 58 985 19 q 986 113 985 81 q 988 179 988 144 q 732 189 801 179 q 706 239 706 190 q 707 271 706 263 q 841 457 756 353 q 985 613 926 561 m 324 372 q 429 378 376 372 q 435 350 435 361 q 386 303 435 303 q 322 304 378 303 q 214 306 267 306 q 106 304 144 306 q 99 333 99 322 q 172 376 99 376 l 232 376 q 233 485 232 393 q 235 642 235 576 q 231 857 235 764 q 106 831 136 842 q 97 864 97 847 q 144 915 97 904 q 275 935 235 935 q 325 888 325 935 q 322 838 325 881 q 317 730 319 794 q 315 607 315 665 l 315 542 q 324 372 315 429 z "},"½":{"ha":1340,"x_min":97,"x_max":1250,"o":"m 322 -79 l 728 733 q 865 1028 817 911 q 912 1017 890 1028 q 933 985 933 1006 q 904 917 933 978 q 829 766 881 868 q 689 487 778 664 q 518 144 600 310 q 382 -149 429 -33 q 334 -137 354 -149 q 314 -107 314 -126 q 322 -79 314 -96 m 861 456 q 817 494 817 460 q 880 583 817 538 q 1019 628 943 628 q 1156 581 1104 628 q 1207 458 1207 533 q 1128 269 1207 371 q 888 75 1049 168 q 1006 74 928 74 q 1232 107 1157 74 q 1250 51 1250 81 q 1218 15 1250 28 q 1029 -1 1174 -1 q 857 1 926 -1 q 799 57 799 1 q 800 81 799 76 q 1036 270 956 172 q 1117 447 1117 368 q 1085 526 1117 496 q 1001 557 1053 557 q 925 528 965 557 q 861 456 885 499 m 324 372 q 429 378 376 372 q 435 350 435 361 q 386 303 435 303 q 322 304 378 303 q 214 306 267 306 q 106 304 144 306 q 99 333 99 322 q 172 376 99 376 l 232 376 q 233 485 232 393 q 235 642 235 576 q 231 857 235 764 q 106 831 136 842 q 97 864 97 847 q 144 915 97 904 q 275 935 235 935 q 325 888 325 935 q 322 838 325 881 q 317 730 319 794 q 315 607 315 665 l 315 542 q 324 372 315 429 z "},"¾":{"ha":1303,"x_min":83,"x_max":1206,"o":"m 231 656 q 351 688 311 663 q 390 769 390 713 q 367 840 390 815 q 285 864 343 864 q 149 790 210 864 q 104 835 104 799 q 133 883 104 861 q 290 935 201 935 q 433 894 386 935 q 481 786 481 854 q 361 636 481 675 q 460 573 428 615 q 492 478 492 531 q 431 346 492 403 q 256 289 369 289 q 135 313 188 289 q 83 375 83 336 q 122 417 83 404 q 264 360 176 360 q 363 391 325 360 q 401 478 401 422 q 238 603 401 603 q 220 604 226 603 q 209 613 214 606 q 204 635 204 621 q 206 654 204 647 q 231 656 221 654 m 814 257 q 1021 254 860 254 q 1024 517 1021 364 q 976 465 1011 503 q 924 408 940 428 q 876 348 907 389 q 814 257 844 307 m 1018 613 q 1081 628 1035 628 q 1111 625 1089 628 q 1108 574 1111 622 q 1103 441 1106 526 q 1100 261 1100 356 q 1194 278 1167 265 q 1206 233 1206 256 q 1181 190 1206 199 q 1100 181 1158 182 q 1122 -3 1100 68 q 1079 -14 1100 -14 q 1031 3 1043 -14 q 1018 58 1018 19 q 1019 113 1018 81 q 1021 179 1021 144 q 765 189 835 179 q 739 239 739 190 q 740 271 739 263 q 874 457 789 353 q 1018 613 960 561 m 354 -79 l 760 733 q 897 1028 849 911 q 944 1017 922 1028 q 965 985 965 1006 q 936 917 965 978 q 861 766 913 868 q 721 487 810 664 q 550 144 632 310 q 414 -149 461 -33 q 366 -137 386 -149 q 346 -107 346 -126 q 354 -79 346 -96 z "},"¿":{"ha":451,"x_min":28,"x_max":417,"o":"m 184 706 q 196 718 184 706 q 243 731 208 731 q 303 706 278 731 q 328 643 328 681 q 303 580 328 606 q 243 554 278 554 q 184 580 208 554 q 160 643 160 606 q 184 706 160 681 m 190 440 q 244 454 226 454 q 307 379 307 454 q 279 299 307 339 q 219 231 251 258 q 158 165 186 204 q 131 88 131 126 q 156 35 131 54 q 219 17 182 17 q 299 42 261 17 q 347 108 338 68 q 417 49 417 99 q 363 -31 417 -1 q 236 -61 310 -61 q 92 -26 156 -61 q 28 82 28 8 q 46 165 28 128 q 90 226 64 201 q 143 271 117 250 q 188 317 169 292 q 206 372 206 343 q 190 440 206 400 z "},"À":{"ha":765,"x_min":7,"x_max":790,"o":"m 274 1242 q 382 1141 325 1185 q 464 1077 439 1097 q 489 1036 489 1057 q 467 996 489 1015 q 360 1063 428 1025 q 259 1125 293 1100 q 225 1178 225 1150 q 274 1242 225 1214 m 539 372 q 396 790 492 496 q 332 613 383 758 q 242 372 281 467 q 411 369 350 369 q 539 372 497 369 m 382 288 q 207 290 346 288 q 90 -29 114 56 q 26 -7 44 -19 q 7 26 7 6 q 66 182 7 43 q 210 535 125 321 q 343 917 294 750 q 401 921 369 921 q 450 909 436 921 q 479 847 464 897 q 635 389 567 565 q 790 14 743 106 q 724 -14 751 -14 q 664 24 679 -14 q 568 290 638 92 q 382 288 413 288 z "},"Á":{"ha":765,"x_min":7,"x_max":790,"o":"m 557 1126 q 447 1058 526 1104 q 349 994 367 1011 q 326 1035 326 1014 q 349 1076 326 1058 q 428 1136 371 1093 q 543 1242 486 1179 q 592 1178 592 1214 q 557 1126 592 1150 m 539 372 q 396 790 492 496 q 332 613 383 758 q 242 372 281 467 q 411 369 350 369 q 539 372 497 369 m 382 288 q 207 290 346 288 q 90 -29 114 56 q 26 -7 44 -19 q 7 26 7 6 q 66 182 7 43 q 210 535 125 321 q 343 917 294 750 q 401 921 369 921 q 450 909 436 921 q 479 847 464 897 q 635 389 567 565 q 790 14 743 106 q 724 -14 751 -14 q 664 24 679 -14 q 568 290 638 92 q 382 288 413 288 z "},"Â":{"ha":765,"x_min":7,"x_max":790,"o":"m 421 1210 q 544 1116 486 1168 q 601 1026 601 1064 q 569 988 601 1001 q 506 1051 543 1021 q 443 1097 468 1082 l 418 1111 q 392 1090 410 1104 q 365 1067 375 1075 q 339 1047 354 1058 q 313 1027 324 1035 q 292 1013 303 1019 q 274 1002 282 1006 q 260 999 265 999 q 225 1024 243 999 q 421 1210 314 1131 m 539 372 q 396 790 492 496 q 332 613 383 758 q 242 372 281 467 q 411 369 350 369 q 539 372 497 369 m 382 288 q 207 290 346 288 q 90 -29 114 56 q 26 -7 44 -19 q 7 26 7 6 q 66 182 7 43 q 210 535 125 321 q 343 917 294 750 q 401 921 369 921 q 450 909 436 921 q 479 847 464 897 q 635 389 567 565 q 790 14 743 106 q 724 -14 751 -14 q 664 24 679 -14 q 568 290 638 92 q 382 288 413 288 z "},"Ã":{"ha":765,"x_min":7,"x_max":790,"o":"m 539 372 q 396 790 492 496 q 332 613 383 758 q 242 372 281 467 q 411 369 350 369 q 539 372 497 369 m 382 288 q 207 290 346 288 q 90 -29 114 56 q 26 -7 44 -19 q 7 26 7 6 q 66 182 7 43 q 210 535 125 321 q 343 917 294 750 q 401 921 369 921 q 450 909 436 921 q 479 847 464 897 q 635 389 567 565 q 790 14 743 106 q 724 -14 751 -14 q 664 24 679 -14 q 568 290 638 92 q 382 288 413 288 m 608 1108 q 565 1033 608 1069 q 474 997 522 997 q 392 1028 444 997 q 315 1060 340 1060 q 233 1001 290 1060 q 211 1031 211 1011 q 255 1105 211 1068 q 347 1142 299 1142 q 426 1110 372 1142 q 504 1079 481 1079 q 586 1138 536 1079 q 608 1108 608 1129 z "},"Ä":{"ha":765,"x_min":7,"x_max":790,"o":"m 539 372 q 396 790 492 496 q 332 613 383 758 q 242 372 281 467 q 411 369 350 369 q 539 372 497 369 m 382 288 q 207 290 346 288 q 90 -29 114 56 q 26 -7 44 -19 q 7 26 7 6 q 66 182 7 43 q 210 535 125 321 q 343 917 294 750 q 401 921 369 921 q 450 909 436 921 q 479 847 464 897 q 635 389 567 565 q 790 14 743 106 q 724 -14 751 -14 q 664 24 679 -14 q 568 290 638 92 q 382 288 413 288 m 506 989 q 456 1010 476 989 q 435 1064 435 1031 q 457 1116 435 1094 q 508 1138 479 1138 q 557 1116 536 1138 q 578 1064 578 1094 q 556 1010 578 1032 q 506 989 533 989 m 258 989 q 208 1010 229 989 q 188 1064 188 1031 q 210 1116 188 1094 q 261 1138 232 1138 q 310 1116 289 1138 q 331 1064 331 1094 q 308 1010 331 1032 q 258 989 286 989 z "},"Å":{"ha":765,"x_min":7,"x_max":790,"o":"m 414 989 q 324 1023 358 989 q 290 1113 290 1057 q 324 1202 290 1168 q 414 1236 358 1236 q 501 1202 468 1236 q 535 1113 535 1168 q 501 1023 535 1057 q 414 989 468 989 m 476 1106 q 460 1167 476 1143 q 414 1190 443 1190 q 366 1171 383 1190 q 349 1118 349 1151 q 366 1058 349 1082 q 414 1035 383 1035 q 460 1053 443 1035 q 476 1106 476 1072 m 539 372 q 396 790 492 496 q 332 613 383 758 q 242 372 281 467 q 411 369 350 369 q 539 372 497 369 m 382 288 q 207 290 346 288 q 90 -29 114 56 q 26 -7 44 -19 q 7 26 7 6 q 66 182 7 43 q 210 535 125 321 q 343 917 294 750 q 401 921 369 921 q 450 909 436 921 q 479 847 464 897 q 635 389 567 565 q 790 14 743 106 q 724 -14 751 -14 q 664 24 679 -14 q 568 290 638 92 q 382 288 413 288 z "},"Æ":{"ha":1061,"x_min":0,"x_max":1019,"o":"m 490 803 q 397 613 469 763 q 275 372 325 464 q 442 369 383 369 l 497 369 l 497 589 q 490 803 497 699 m 596 832 q 601 538 601 771 l 711 538 q 878 543 828 538 q 883 507 883 532 q 869 464 883 475 q 822 451 854 453 q 724 450 786 450 l 601 450 q 611 86 601 147 q 710 83 672 83 q 1008 115 943 83 q 1019 54 1019 88 q 1007 18 1019 29 q 782 -3 982 -3 q 563 0 604 -3 q 508 19 522 1 q 494 79 494 38 q 497 288 494 126 l 403 288 q 231 290 369 288 q 82 -14 108 56 q 0 43 0 -1 q 32 115 0 56 q 124 282 64 175 q 214 446 183 389 q 436 908 350 699 q 781 925 601 925 q 1006 904 981 925 q 1018 868 1018 893 q 1007 807 1018 835 q 749 836 928 836 q 596 832 675 836 z "},"Ç":{"ha":836,"x_min":68,"x_max":775,"o":"m 714 186 q 775 118 775 161 q 699 29 775 69 q 511 -14 624 -11 q 506 -42 506 -36 q 506 -50 506 -46 q 510 -57 507 -54 q 514 -62 513 -60 q 520 -69 515 -65 q 527 -74 525 -72 q 535 -78 529 -75 q 543 -83 540 -82 q 608 -185 608 -121 q 560 -280 608 -237 q 442 -322 513 -322 q 393 -287 393 -322 q 411 -247 393 -265 q 454 -260 432 -260 q 524 -204 524 -260 q 481 -137 524 -172 q 439 -75 439 -101 q 454 -11 439 -51 q 173 132 278 3 q 68 461 68 261 q 186 809 68 683 q 506 935 304 935 q 688 891 614 935 q 761 783 761 847 q 682 714 761 726 q 599 816 656 782 q 478 850 542 850 q 265 747 347 850 q 182 489 182 643 q 265 191 182 311 q 499 71 349 71 q 623 100 565 71 q 714 186 681 129 z "},"È":{"ha":675,"x_min":92,"x_max":633,"o":"m 188 1249 q 296 1148 239 1192 q 378 1084 353 1104 q 403 1043 403 1064 q 381 1003 403 1022 q 274 1069 342 1032 q 173 1132 207 1107 q 139 1185 139 1157 q 188 1249 139 1221 m 210 832 q 215 538 215 771 l 325 538 q 492 543 442 538 q 497 507 497 532 q 483 464 497 475 q 436 451 468 453 q 338 450 400 450 l 215 450 q 225 86 215 147 q 324 83 286 83 q 622 115 557 83 q 633 54 633 88 q 621 18 633 29 q 396 -3 596 -3 q 176 0 218 -3 q 122 19 136 1 q 108 79 108 38 q 110 182 108 101 q 111 311 111 263 l 111 589 q 92 913 111 788 q 394 925 240 925 q 619 904 594 925 q 632 868 632 893 q 621 807 632 835 q 363 836 542 836 q 210 832 289 836 z "},"É":{"ha":675,"x_min":92,"x_max":633,"o":"m 522 1133 q 412 1065 492 1111 q 314 1001 332 1018 q 292 1042 292 1021 q 314 1083 292 1065 q 394 1143 336 1100 q 508 1249 451 1186 q 557 1185 557 1221 q 522 1133 557 1157 m 210 832 q 215 538 215 771 l 325 538 q 492 543 442 538 q 497 507 497 532 q 483 464 497 475 q 436 451 468 453 q 338 450 400 450 l 215 450 q 225 86 215 147 q 324 83 286 83 q 622 115 557 83 q 633 54 633 88 q 621 18 633 29 q 396 -3 596 -3 q 176 0 218 -3 q 122 19 136 1 q 108 79 108 38 q 110 182 108 101 q 111 311 111 263 l 111 589 q 92 913 111 788 q 394 925 240 925 q 619 904 594 925 q 632 868 632 893 q 621 807 632 835 q 363 836 542 836 q 210 832 289 836 z "},"Ê":{"ha":675,"x_min":92,"x_max":633,"o":"m 349 1207 q 472 1113 414 1165 q 529 1024 529 1061 q 497 985 529 999 q 433 1049 471 1018 q 371 1094 396 1081 l 346 1108 q 320 1087 338 1101 q 292 1064 303 1072 q 267 1044 282 1056 q 241 1024 251 1032 q 220 1010 231 1017 q 201 999 210 1003 q 188 996 193 996 q 153 1021 171 996 q 349 1207 242 1128 m 210 832 q 215 538 215 771 l 325 538 q 492 543 442 538 q 497 507 497 532 q 483 464 497 475 q 436 451 468 453 q 338 450 400 450 l 215 450 q 225 86 215 147 q 324 83 286 83 q 622 115 557 83 q 633 54 633 88 q 621 18 633 29 q 396 -3 596 -3 q 176 0 218 -3 q 122 19 136 1 q 108 79 108 38 q 110 182 108 101 q 111 311 111 263 l 111 589 q 92 913 111 788 q 394 925 240 925 q 619 904 594 925 q 632 868 632 893 q 621 807 632 835 q 363 836 542 836 q 210 832 289 836 z "},"Ë":{"ha":675,"x_min":92,"x_max":633,"o":"m 210 832 q 215 538 215 771 l 325 538 q 492 543 442 538 q 497 507 497 532 q 483 464 497 475 q 436 451 468 453 q 338 450 400 450 l 215 450 q 225 86 215 147 q 324 83 286 83 q 622 115 557 83 q 633 54 633 88 q 621 18 633 29 q 396 -3 596 -3 q 176 0 218 -3 q 122 19 136 1 q 108 79 108 38 q 110 182 108 101 q 111 311 111 263 l 111 589 q 92 913 111 788 q 394 925 240 925 q 619 904 594 925 q 632 868 632 893 q 621 807 632 835 q 363 836 542 836 q 210 832 289 836 m 460 989 q 410 1010 431 989 q 389 1064 389 1031 q 411 1116 389 1094 q 463 1138 433 1138 q 511 1116 490 1138 q 532 1064 532 1094 q 510 1010 532 1032 q 460 989 488 989 m 213 989 q 163 1010 183 989 q 142 1064 142 1031 q 164 1116 142 1094 q 215 1138 186 1138 q 264 1116 243 1138 q 285 1064 285 1094 q 263 1010 285 1032 q 213 989 240 989 z "},"Ì":{"ha":307,"x_min":-47,"x_max":232,"o":"m 101 321 l 101 599 q 92 921 101 794 q 149 925 115 925 q 217 872 217 925 q 214 816 217 864 q 208 697 211 768 q 206 561 206 625 l 206 282 q 232 7 206 94 q 167 -4 207 -4 q 113 14 126 -4 q 99 75 99 32 q 100 185 99 97 q 101 321 101 272 m 1 1249 q 110 1148 53 1192 q 192 1084 167 1104 q 217 1043 217 1064 q 194 1003 217 1022 q 88 1069 156 1032 q -13 1132 21 1107 q -47 1185 -47 1157 q 1 1249 -47 1221 z "},"Í":{"ha":307,"x_min":92,"x_max":371,"o":"m 101 321 l 101 599 q 92 921 101 794 q 149 925 115 925 q 217 872 217 925 q 214 816 217 864 q 208 697 211 768 q 206 561 206 625 l 206 282 q 232 7 206 94 q 167 -4 207 -4 q 113 14 126 -4 q 99 75 99 32 q 100 185 99 97 q 101 321 101 272 m 336 1133 q 226 1065 306 1111 q 128 1001 146 1018 q 106 1042 106 1021 q 128 1083 106 1065 q 208 1143 150 1100 q 322 1249 265 1186 q 371 1185 371 1221 q 336 1133 371 1157 z "},"Î":{"ha":307,"x_min":-33,"x_max":343,"o":"m 101 321 l 101 599 q 92 921 101 794 q 149 925 115 925 q 217 872 217 925 q 214 816 217 864 q 208 697 211 768 q 206 561 206 625 l 206 282 q 232 7 206 94 q 167 -4 207 -4 q 113 14 126 -4 q 99 75 99 32 q 100 185 99 97 q 101 321 101 272 m 163 1207 q 285 1113 228 1165 q 343 1024 343 1061 q 311 985 343 999 q 247 1049 285 1018 q 185 1094 210 1081 l 160 1108 q 134 1087 151 1101 q 106 1064 117 1072 q 81 1044 96 1056 q 55 1024 65 1032 q 34 1010 44 1017 q 15 999 24 1003 q 1 996 7 996 q -33 1021 -15 996 q 163 1207 56 1128 z "},"Ï":{"ha":307,"x_min":-46,"x_max":344,"o":"m 101 321 l 101 599 q 92 921 101 794 q 149 925 115 925 q 217 872 217 925 q 214 816 217 864 q 208 697 211 768 q 206 561 206 625 l 206 282 q 232 7 206 94 q 167 -4 207 -4 q 113 14 126 -4 q 99 75 99 32 q 100 185 99 97 q 101 321 101 272 m 25 989 q -25 1010 -4 989 q -46 1064 -46 1031 q -24 1116 -46 1094 q 28 1138 -1 1138 q 76 1116 56 1138 q 97 1064 97 1094 q 75 1010 97 1032 q 25 989 53 989 m 272 989 q 222 1010 243 989 q 201 1064 201 1031 q 224 1116 201 1094 q 275 1138 246 1138 q 324 1116 303 1138 q 344 1064 344 1094 q 322 1010 344 1032 q 272 989 300 989 z "},"Ð":{"ha":882,"x_min":-22,"x_max":814,"o":"m 213 844 q 218 618 218 749 l 218 538 l 307 538 q 465 543 422 538 q 471 507 471 526 q 458 466 471 479 q 410 451 446 453 q 217 450 364 450 q 199 121 213 257 q 383 71 274 71 q 535 104 471 71 q 633 194 599 138 q 682 310 667 250 q 697 435 697 369 q 594 746 697 642 q 301 850 492 850 q 213 844 271 850 m 92 74 q 113 450 110 190 q -17 444 32 450 q -22 481 -22 461 q -10 522 -22 508 q 39 536 3 535 q 73 537 47 536 q 114 538 99 538 q 96 918 114 783 q 311 935 179 935 q 506 911 419 935 q 663 835 592 888 q 774 689 735 783 q 814 463 814 594 q 703 120 814 254 q 386 -14 592 -14 q 92 74 197 -14 z "},"Ñ":{"ha":858,"x_min":92,"x_max":767,"o":"m 765 1 q 719 -4 743 -4 q 647 33 672 -4 q 450 369 590 121 q 210 767 310 617 q 208 282 208 714 q 235 7 208 94 q 183 -4 210 -4 q 129 14 143 -4 q 115 75 115 32 q 117 185 115 97 q 118 321 118 272 l 118 599 q 92 915 118 831 q 157 926 118 926 q 201 917 185 926 q 235 886 217 907 q 435 590 304 807 q 674 165 565 374 q 667 324 669 215 q 665 515 665 432 l 665 599 q 656 921 665 794 q 699 925 679 925 q 767 872 767 925 q 764 816 767 864 q 758 697 761 768 q 756 561 756 625 l 756 324 q 765 1 756 128 m 635 1115 q 592 1040 635 1076 q 500 1004 549 1004 q 419 1035 471 1004 q 342 1067 367 1067 q 260 1008 317 1067 q 238 1038 238 1018 q 281 1112 238 1075 q 374 1149 325 1149 q 453 1117 399 1149 q 531 1086 507 1086 q 613 1144 563 1086 q 635 1115 635 1136 z "},"Ò":{"ha":989,"x_min":68,"x_max":921,"o":"m 333 1249 q 442 1148 385 1192 q 524 1084 499 1104 q 549 1043 549 1064 q 526 1003 549 1022 q 420 1069 488 1032 q 319 1132 353 1107 q 285 1185 285 1157 q 333 1249 285 1221 m 493 -14 q 183 115 299 -14 q 68 460 68 244 q 183 806 68 678 q 493 935 299 935 q 805 806 689 935 q 921 460 921 678 q 805 115 921 244 q 493 -14 689 -14 m 804 435 q 787 583 804 513 q 735 715 769 654 q 638 813 700 776 q 494 850 575 850 q 267 752 351 850 q 182 503 182 654 q 199 347 182 421 q 251 210 217 274 q 348 108 286 146 q 492 71 410 71 q 723 172 642 71 q 804 435 804 272 z "},"Ó":{"ha":989,"x_min":68,"x_max":921,"o":"m 668 1133 q 558 1065 638 1111 q 460 1001 478 1018 q 438 1042 438 1021 q 460 1083 438 1065 q 540 1143 482 1100 q 654 1249 597 1186 q 703 1185 703 1221 q 668 1133 703 1157 m 493 -14 q 183 115 299 -14 q 68 460 68 244 q 183 806 68 678 q 493 935 299 935 q 805 806 689 935 q 921 460 921 678 q 805 115 921 244 q 493 -14 689 -14 m 804 435 q 787 583 804 513 q 735 715 769 654 q 638 813 700 776 q 494 850 575 850 q 267 752 351 850 q 182 503 182 654 q 199 347 182 421 q 251 210 217 274 q 348 108 286 146 q 492 71 410 71 q 723 172 642 71 q 804 435 804 272 z "},"Ô":{"ha":989,"x_min":68,"x_max":921,"o":"m 494 1206 q 617 1112 560 1164 q 675 1022 675 1060 q 643 983 675 997 q 579 1047 617 1017 q 517 1092 542 1078 l 492 1107 q 466 1085 483 1100 q 438 1063 449 1071 q 413 1042 428 1054 q 387 1023 397 1031 q 366 1008 376 1015 q 347 998 356 1001 q 333 994 339 994 q 299 1019 317 994 q 494 1206 388 1126 m 493 -14 q 183 115 299 -14 q 68 460 68 244 q 183 806 68 678 q 493 935 299 935 q 805 806 689 935 q 921 460 921 678 q 805 115 921 244 q 493 -14 689 -14 m 804 435 q 787 583 804 513 q 735 715 769 654 q 638 813 700 776 q 494 850 575 850 q 267 752 351 850 q 182 503 182 654 q 199 347 182 421 q 251 210 217 274 q 348 108 286 146 q 492 71 410 71 q 723 172 642 71 q 804 435 804 272 z "},"Õ":{"ha":989,"x_min":68,"x_max":921,"o":"m 693 1115 q 650 1040 693 1076 q 558 1004 607 1004 q 477 1035 529 1004 q 400 1067 425 1067 q 318 1008 375 1067 q 296 1038 296 1018 q 340 1112 296 1075 q 432 1149 383 1149 q 511 1117 457 1149 q 589 1086 565 1086 q 671 1144 621 1086 q 693 1115 693 1136 m 493 -14 q 183 115 299 -14 q 68 460 68 244 q 183 806 68 678 q 493 935 299 935 q 805 806 689 935 q 921 460 921 678 q 805 115 921 244 q 493 -14 689 -14 m 804 435 q 787 583 804 513 q 735 715 769 654 q 638 813 700 776 q 494 850 575 850 q 267 752 351 850 q 182 503 182 654 q 199 347 182 421 q 251 210 217 274 q 348 108 286 146 q 492 71 410 71 q 723 172 642 71 q 804 435 804 272 z "},"Ö":{"ha":989,"x_min":68,"x_max":921,"o":"m 493 -14 q 183 115 299 -14 q 68 460 68 244 q 183 806 68 678 q 493 935 299 935 q 805 806 689 935 q 921 460 921 678 q 805 115 921 244 q 493 -14 689 -14 m 804 435 q 787 583 804 513 q 735 715 769 654 q 638 813 700 776 q 494 850 575 850 q 267 752 351 850 q 182 503 182 654 q 199 347 182 421 q 251 210 217 274 q 348 108 286 146 q 492 71 410 71 q 723 172 642 71 q 804 435 804 272 m 617 989 q 567 1010 588 989 q 546 1064 546 1031 q 568 1116 546 1094 q 619 1138 590 1138 q 668 1116 647 1138 q 689 1064 689 1094 q 667 1010 689 1032 q 617 989 644 989 m 369 989 q 319 1010 340 989 q 299 1064 299 1031 q 321 1116 299 1094 q 372 1138 343 1138 q 421 1116 400 1138 q 442 1064 442 1094 q 419 1010 442 1032 q 369 989 397 989 z "},"×":{"ha":743,"x_min":85,"x_max":657,"o":"m 426 350 q 657 135 579 197 q 586 83 626 83 q 554 97 568 83 q 464 194 536 115 q 369 294 392 272 q 154 64 232 160 q 101 135 101 100 q 115 167 101 153 l 314 351 q 85 567 140 518 q 154 619 118 619 q 188 604 172 619 q 226 563 196 596 q 299 485 256 531 q 371 407 342 439 q 586 638 524 560 q 622 607 606 626 q 638 567 638 588 q 624 535 638 549 q 527 444 606 517 q 426 350 449 372 z "},"Ø":{"ha":989,"x_min":68,"x_max":921,"o":"m 804 435 q 711 749 804 632 l 356 104 q 492 71 414 71 q 723 172 642 71 q 804 435 804 272 m 182 503 q 296 150 182 269 l 656 801 q 494 850 588 850 q 267 752 351 850 q 182 503 182 654 m 188 -46 l 246 60 q 68 460 68 185 q 183 806 68 678 q 493 935 299 935 q 700 888 608 935 q 774 1033 749 979 q 817 1020 797 1032 q 838 990 838 1008 q 829 963 838 978 l 764 844 q 921 460 921 718 q 805 115 921 244 q 493 -14 689 -14 q 313 21 394 -14 q 243 -117 269 -60 q 179 -72 179 -108 q 188 -46 179 -62 z "},"Ù":{"ha":894,"x_min":100,"x_max":803,"o":"m 290 1249 q 399 1148 342 1192 q 481 1084 456 1104 q 506 1043 506 1064 q 483 1003 506 1022 q 377 1069 444 1032 q 276 1132 310 1107 q 242 1185 242 1157 q 290 1249 242 1221 m 100 914 q 163 925 128 925 q 222 909 203 925 q 240 854 240 893 q 230 591 240 794 q 219 275 219 388 q 276 126 219 178 q 406 75 332 75 q 549 108 474 75 q 671 186 624 142 q 672 234 671 196 q 672 365 672 272 q 672 599 672 457 q 663 921 672 794 q 719 925 686 925 q 788 872 788 925 q 785 821 788 869 q 779 669 782 772 q 776 429 776 565 q 781 141 776 214 q 803 7 785 68 q 738 -4 778 -4 q 684 13 699 -4 q 669 78 669 31 l 669 93 q 536 16 614 46 q 393 -14 458 -14 q 187 48 263 -14 q 111 267 111 110 q 117 489 111 349 q 124 696 124 629 q 100 914 124 828 z "},"Ú":{"ha":894,"x_min":100,"x_max":803,"o":"m 625 1133 q 515 1065 594 1111 q 417 1001 435 1018 q 394 1042 394 1021 q 417 1083 394 1065 q 497 1143 439 1100 q 611 1249 554 1186 q 660 1185 660 1221 q 625 1133 660 1157 m 100 914 q 163 925 128 925 q 222 909 203 925 q 240 854 240 893 q 230 591 240 794 q 219 275 219 388 q 276 126 219 178 q 406 75 332 75 q 549 108 474 75 q 671 186 624 142 q 672 234 671 196 q 672 365 672 272 q 672 599 672 457 q 663 921 672 794 q 719 925 686 925 q 788 872 788 925 q 785 821 788 869 q 779 669 782 772 q 776 429 776 565 q 781 141 776 214 q 803 7 785 68 q 738 -4 778 -4 q 684 13 699 -4 q 669 78 669 31 l 669 93 q 536 16 614 46 q 393 -14 458 -14 q 187 48 263 -14 q 111 267 111 110 q 117 489 111 349 q 124 696 124 629 q 100 914 124 828 z "},"Û":{"ha":894,"x_min":100,"x_max":803,"o":"m 451 1207 q 574 1113 517 1165 q 632 1024 632 1061 q 600 985 632 999 q 536 1049 574 1018 q 474 1094 499 1081 l 449 1108 q 423 1087 440 1101 q 395 1064 406 1072 q 369 1044 385 1056 q 344 1024 354 1032 q 323 1010 333 1017 q 304 999 313 1003 q 290 996 296 996 q 256 1021 274 996 q 451 1207 344 1128 m 100 914 q 163 925 128 925 q 222 909 203 925 q 240 854 240 893 q 230 591 240 794 q 219 275 219 388 q 276 126 219 178 q 406 75 332 75 q 549 108 474 75 q 671 186 624 142 q 672 234 671 196 q 672 365 672 272 q 672 599 672 457 q 663 921 672 794 q 719 925 686 925 q 788 872 788 925 q 785 821 788 869 q 779 669 782 772 q 776 429 776 565 q 781 141 776 214 q 803 7 785 68 q 738 -4 778 -4 q 684 13 699 -4 q 669 78 669 31 l 669 93 q 536 16 614 46 q 393 -14 458 -14 q 187 48 263 -14 q 111 267 111 110 q 117 489 111 349 q 124 696 124 629 q 100 914 124 828 z "},"Ü":{"ha":894,"x_min":100,"x_max":803,"o":"m 100 914 q 163 925 128 925 q 222 909 203 925 q 240 854 240 893 q 230 591 240 794 q 219 275 219 388 q 276 126 219 178 q 406 75 332 75 q 549 108 474 75 q 671 186 624 142 q 672 234 671 196 q 672 365 672 272 q 672 599 672 457 q 663 921 672 794 q 719 925 686 925 q 788 872 788 925 q 785 821 788 869 q 779 669 782 772 q 776 429 776 565 q 781 141 776 214 q 803 7 785 68 q 738 -4 778 -4 q 684 13 699 -4 q 669 78 669 31 l 669 93 q 536 16 614 46 q 393 -14 458 -14 q 187 48 263 -14 q 111 267 111 110 q 117 489 111 349 q 124 696 124 629 q 100 914 124 828 m 569 989 q 519 1010 540 989 q 499 1064 499 1031 q 521 1116 499 1094 q 572 1138 543 1138 q 621 1116 600 1138 q 642 1064 642 1094 q 619 1010 642 1032 q 569 989 597 989 m 322 989 q 272 1010 293 989 q 251 1064 251 1031 q 274 1116 251 1094 q 325 1138 296 1138 q 374 1116 353 1138 q 394 1064 394 1094 q 372 1010 394 1032 q 322 989 350 989 z "},"Ý":{"ha":696,"x_min":-14,"x_max":689,"o":"m 517 1133 q 406 1065 486 1111 q 308 1001 326 1018 q 286 1042 286 1021 q 308 1083 286 1065 q 388 1143 331 1100 q 503 1249 446 1186 q 551 1185 551 1221 q 517 1133 551 1157 m 689 871 q 583 674 689 836 q 399 418 478 513 l 399 300 q 425 7 399 97 q 360 -4 400 -4 q 306 14 319 -4 q 292 75 292 32 q 294 322 293 203 l 294 408 q -14 860 93 788 q 3 881 -10 865 q 22 900 17 896 q 36 913 26 904 q 54 924 46 921 q 74 926 63 926 q 140 879 108 926 q 363 501 224 758 q 505 735 429 589 q 583 933 581 882 q 689 871 689 926 z "},"Þ":{"ha":711,"x_min":92,"x_max":663,"o":"m 344 263 q 492 317 439 263 q 546 465 546 372 q 486 642 546 593 q 300 690 426 690 q 207 685 268 690 q 206 469 206 646 l 206 297 q 344 263 267 263 m 149 925 q 217 872 217 925 q 216 853 217 867 q 214 815 215 840 q 211 771 213 790 q 290 775 256 775 q 663 475 663 775 q 576 254 663 331 q 372 178 489 178 q 206 222 274 178 q 232 7 206 93 q 167 -4 207 -4 q 113 14 126 -4 q 99 75 99 32 q 100 185 99 97 q 101 321 101 272 l 101 599 q 92 921 101 794 q 149 925 115 925 z "},"ß":{"ha":722,"x_min":90,"x_max":660,"o":"m 210 682 l 210 272 q 210 149 210 218 q 211 68 211 81 q 197 13 211 29 q 143 -4 182 -4 q 90 7 115 -4 q 118 281 118 100 l 118 644 q 190 861 118 788 q 360 935 261 935 q 496 894 440 935 q 551 782 551 854 q 533 692 551 731 q 490 631 515 653 q 438 592 464 608 q 393 555 411 575 q 375 511 375 535 q 404 454 375 482 q 475 401 433 426 q 559 347 517 375 q 631 274 601 318 q 660 176 660 229 q 603 44 660 101 q 464 -14 546 -14 q 351 18 400 -14 q 301 97 301 50 q 364 156 301 138 q 405 88 372 111 q 475 64 438 64 q 536 92 510 64 q 563 160 563 121 q 535 238 563 203 q 467 300 507 274 q 388 353 428 326 q 319 419 347 381 q 292 506 292 458 q 317 573 292 542 q 373 624 343 604 q 428 679 403 644 q 454 754 454 714 q 426 830 454 803 q 351 857 397 857 q 251 813 293 857 q 210 682 210 769 z "},"à":{"ha":661,"x_min":8,"x_max":661,"o":"m 178 1038 q 286 937 229 981 q 368 873 343 893 q 393 832 393 853 q 371 792 393 811 q 265 858 332 821 q 163 921 197 896 q 129 974 129 946 q 178 1038 129 1010 m 432 293 q 319 589 406 356 q 210 294 250 389 q 338 292 293 292 q 432 293 403 292 m 315 218 q 181 221 286 218 q 151 147 174 204 q 114 52 128 90 q 90 -22 100 14 q 8 21 8 -11 q 22 67 8 35 q 67 173 35 99 q 129 322 100 247 q 271 714 238 601 q 322 718 293 718 q 365 709 353 718 q 393 660 378 700 q 453 498 404 631 q 531 294 503 365 q 661 10 597 131 q 599 -10 622 -10 q 542 18 557 -10 q 460 221 533 38 q 315 218 340 218 z "},"á":{"ha":661,"x_min":8,"x_max":661,"o":"m 479 922 q 369 853 449 900 q 271 790 289 807 q 249 831 249 810 q 271 872 249 854 q 351 932 293 889 q 465 1038 408 975 q 514 974 514 1010 q 479 922 514 946 m 432 293 q 319 589 406 356 q 210 294 250 389 q 338 292 293 292 q 432 293 403 292 m 315 218 q 181 221 286 218 q 151 147 174 204 q 114 52 128 90 q 90 -22 100 14 q 8 21 8 -11 q 22 67 8 35 q 67 173 35 99 q 129 322 100 247 q 271 714 238 601 q 322 718 293 718 q 365 709 353 718 q 393 660 378 700 q 453 498 404 631 q 531 294 503 365 q 661 10 597 131 q 599 -10 622 -10 q 542 18 557 -10 q 460 221 533 38 q 315 218 340 218 z "},"â":{"ha":661,"x_min":8,"x_max":661,"o":"m 326 1006 q 449 912 392 964 q 507 822 507 860 q 475 783 507 797 q 411 847 449 817 q 349 892 374 878 l 324 907 q 298 885 315 900 q 270 863 281 871 q 244 842 260 854 q 219 823 229 831 q 198 808 208 815 q 179 798 188 801 q 165 794 171 794 q 131 819 149 794 q 326 1006 219 926 m 432 293 q 319 589 406 356 q 210 294 250 389 q 338 292 293 292 q 432 293 403 292 m 315 218 q 181 221 286 218 q 151 147 174 204 q 114 52 128 90 q 90 -22 100 14 q 8 21 8 -11 q 22 67 8 35 q 67 173 35 99 q 129 322 100 247 q 271 714 238 601 q 322 718 293 718 q 365 709 353 718 q 393 660 378 700 q 453 498 404 631 q 531 294 503 365 q 661 10 597 131 q 599 -10 622 -10 q 542 18 557 -10 q 460 221 533 38 q 315 218 340 218 z "},"ã":{"ha":661,"x_min":8,"x_max":661,"o":"m 529 910 q 486 835 529 871 q 394 799 443 799 q 313 830 365 799 q 236 861 261 861 q 154 803 211 861 q 132 832 132 813 q 176 906 132 869 q 268 943 219 943 q 347 912 293 943 q 425 881 401 881 q 507 939 457 881 q 529 910 529 931 m 432 293 q 319 589 406 356 q 210 294 250 389 q 338 292 293 292 q 432 293 403 292 m 315 218 q 181 221 286 218 q 151 147 174 204 q 114 52 128 90 q 90 -22 100 14 q 8 21 8 -11 q 22 67 8 35 q 67 173 35 99 q 129 322 100 247 q 271 714 238 601 q 322 718 293 718 q 365 709 353 718 q 393 660 378 700 q 453 498 404 631 q 531 294 503 365 q 661 10 597 131 q 599 -10 622 -10 q 542 18 557 -10 q 460 221 533 38 q 315 218 340 218 z "},"ä":{"ha":661,"x_min":8,"x_max":661,"o":"m 432 293 q 319 589 406 356 q 210 294 250 389 q 338 292 293 292 q 432 293 403 292 m 315 218 q 181 221 286 218 q 151 147 174 204 q 114 52 128 90 q 90 -22 100 14 q 8 21 8 -11 q 22 67 8 35 q 67 173 35 99 q 129 322 100 247 q 271 714 238 601 q 322 718 293 718 q 365 709 353 718 q 393 660 378 700 q 453 498 404 631 q 531 294 503 365 q 661 10 597 131 q 599 -10 622 -10 q 542 18 557 -10 q 460 221 533 38 q 315 218 340 218 m 443 781 q 393 801 414 781 q 372 856 372 822 q 394 908 372 886 q 446 929 417 929 q 494 908 474 929 q 515 856 515 886 q 493 802 515 824 q 443 781 471 781 m 196 781 q 146 801 167 781 q 125 856 125 822 q 147 908 125 886 q 199 929 169 929 q 247 908 226 929 q 268 856 268 886 q 246 802 268 824 q 196 781 224 781 z "},"å":{"ha":661,"x_min":8,"x_max":661,"o":"m 319 785 q 230 819 264 785 q 196 908 196 853 q 230 998 196 964 q 319 1032 264 1032 q 407 998 374 1032 q 440 908 440 964 q 407 819 440 853 q 319 785 374 785 m 382 901 q 365 963 382 939 q 319 986 349 986 q 272 967 289 986 q 254 914 254 947 q 272 854 254 878 q 319 831 289 831 q 365 849 349 831 q 382 901 382 868 m 432 293 q 319 589 406 356 q 210 294 250 389 q 338 292 293 292 q 432 293 403 292 m 315 218 q 181 221 286 218 q 151 147 174 204 q 114 52 128 90 q 90 -22 100 14 q 8 21 8 -11 q 22 67 8 35 q 67 173 35 99 q 129 322 100 247 q 271 714 238 601 q 322 718 293 718 q 365 709 353 718 q 393 660 378 700 q 453 498 404 631 q 531 294 503 365 q 661 10 597 131 q 599 -10 622 -10 q 542 18 557 -10 q 460 221 533 38 q 315 218 340 218 z "},"æ":{"ha":901,"x_min":0,"x_max":850,"o":"m 411 218 l 340 218 q 206 221 311 218 q 74 -22 93 21 q 0 32 0 -8 q 38 109 0 47 q 172 336 76 171 q 369 707 268 501 q 649 721 426 721 q 838 704 817 721 q 849 672 849 694 q 839 619 849 644 q 631 642 772 642 q 507 639 576 642 q 511 424 511 606 l 600 424 q 733 428 693 424 q 738 397 738 418 q 726 359 738 369 q 689 347 714 349 q 610 346 660 346 l 511 346 q 519 76 511 122 q 600 74 569 74 q 840 99 783 74 q 850 46 850 74 q 839 14 850 24 q 650 -1 818 -1 q 544 -1 618 -1 q 467 0 469 0 q 420 15 432 1 q 408 61 408 29 q 411 218 408 99 m 411 292 l 411 463 q 408 586 411 506 q 249 294 296 374 q 375 292 332 292 l 411 292 z "},"ç":{"ha":725,"x_min":67,"x_max":656,"o":"m 601 157 q 656 94 656 135 q 596 24 656 54 q 443 -10 536 -7 q 436 -42 436 -31 q 437 -50 436 -46 q 440 -57 438 -54 q 444 -62 443 -60 q 451 -69 446 -65 q 458 -74 456 -72 q 465 -78 460 -75 q 474 -83 471 -82 q 539 -185 539 -121 q 491 -280 539 -237 q 372 -322 443 -322 q 324 -287 324 -322 q 342 -247 324 -265 q 385 -260 363 -260 q 454 -204 454 -260 q 412 -137 454 -172 q 369 -75 369 -101 q 386 -7 369 -53 q 153 105 239 6 q 67 358 67 204 q 165 630 67 532 q 432 728 263 728 q 583 694 522 728 q 644 610 644 660 q 568 546 644 558 q 503 624 549 597 q 408 651 458 651 q 242 574 307 651 q 176 381 176 496 q 242 156 176 246 q 425 65 307 65 q 526 89 478 65 q 601 157 574 113 z "},"è":{"ha":621,"x_min":114,"x_max":569,"o":"m 189 1038 q 297 937 240 981 q 379 873 354 893 q 404 832 404 853 q 382 792 404 811 q 276 858 343 821 q 174 921 208 896 q 140 974 140 946 q 189 1038 140 1010 m 226 639 q 231 424 231 606 l 319 424 q 453 428 413 424 q 457 397 457 417 q 445 359 457 369 q 408 347 433 349 q 329 346 379 346 l 231 346 q 239 76 231 122 q 319 74 289 74 q 560 99 503 74 q 569 46 569 74 q 558 14 569 24 q 369 -1 538 -1 q 263 -1 336 -1 q 186 0 189 0 q 140 15 151 1 q 128 61 128 29 q 129 147 128 81 q 131 250 131 213 l 131 463 q 114 711 131 621 q 368 721 250 721 q 557 704 536 721 q 568 672 568 694 q 558 619 568 644 q 350 642 492 642 q 226 639 296 642 z "},"é":{"ha":621,"x_min":114,"x_max":569,"o":"m 524 922 q 413 853 493 900 q 315 790 333 807 q 293 831 293 810 q 315 872 293 854 q 395 932 338 889 q 510 1038 453 975 q 558 974 558 1010 q 524 922 558 946 m 226 639 q 231 424 231 606 l 319 424 q 453 428 413 424 q 457 397 457 417 q 445 359 457 369 q 408 347 433 349 q 329 346 379 346 l 231 346 q 239 76 231 122 q 319 74 289 74 q 560 99 503 74 q 569 46 569 74 q 558 14 569 24 q 369 -1 538 -1 q 263 -1 336 -1 q 186 0 189 0 q 140 15 151 1 q 128 61 128 29 q 129 147 128 81 q 131 250 131 213 l 131 463 q 114 711 131 621 q 368 721 250 721 q 557 704 536 721 q 568 672 568 694 q 558 619 568 644 q 350 642 492 642 q 226 639 296 642 z "},"ê":{"ha":621,"x_min":114,"x_max":569,"o":"m 336 1006 q 459 912 401 964 q 517 822 517 860 q 485 783 517 797 q 421 847 458 817 q 358 892 383 878 l 333 907 q 308 885 325 900 q 280 863 290 871 q 254 842 269 854 q 228 823 239 831 q 208 808 218 815 q 189 798 197 801 q 175 794 181 794 q 140 819 158 794 q 336 1006 229 926 m 226 639 q 231 424 231 606 l 319 424 q 453 428 413 424 q 457 397 457 417 q 445 359 457 369 q 408 347 433 349 q 329 346 379 346 l 231 346 q 239 76 231 122 q 319 74 289 74 q 560 99 503 74 q 569 46 569 74 q 558 14 569 24 q 369 -1 538 -1 q 263 -1 336 -1 q 186 0 189 0 q 140 15 151 1 q 128 61 128 29 q 129 147 128 81 q 131 250 131 213 l 131 463 q 114 711 131 621 q 368 721 250 721 q 557 704 536 721 q 568 672 568 694 q 558 619 568 644 q 350 642 492 642 q 226 639 296 642 z "},"ë":{"ha":621,"x_min":114,"x_max":569,"o":"m 447 781 q 397 801 418 781 q 376 856 376 822 q 399 908 376 886 q 450 929 421 929 q 499 908 478 929 q 519 856 519 886 q 497 802 519 824 q 447 781 475 781 m 200 781 q 150 801 171 781 q 129 856 129 822 q 151 908 129 886 q 203 929 174 929 q 251 908 231 929 q 272 856 272 886 q 250 802 272 824 q 200 781 228 781 m 226 639 q 231 424 231 606 l 319 424 q 453 428 413 424 q 457 397 457 417 q 445 359 457 369 q 408 347 433 349 q 329 346 379 346 l 231 346 q 239 76 231 122 q 319 74 289 74 q 560 99 503 74 q 569 46 569 74 q 558 14 569 24 q 369 -1 538 -1 q 263 -1 336 -1 q 186 0 189 0 q 140 15 151 1 q 128 61 128 29 q 129 147 128 81 q 131 250 131 213 l 131 463 q 114 711 131 621 q 368 721 250 721 q 557 704 536 721 q 568 672 568 694 q 558 619 568 644 q 350 642 492 642 q 226 639 296 642 z "},"ì":{"ha":372,"x_min":6,"x_max":269,"o":"m 136 250 l 136 467 q 128 717 136 611 q 181 721 153 721 q 246 679 246 721 q 244 636 246 674 q 239 543 242 599 q 236 438 236 488 l 236 219 q 258 6 236 74 q 197 -3 238 -3 q 147 11 160 -3 q 133 58 133 25 q 135 143 133 75 q 136 250 136 211 m 54 1038 q 163 937 106 981 q 244 873 219 893 q 269 832 269 853 q 247 792 269 811 q 141 858 208 821 q 40 921 74 896 q 6 974 6 946 q 54 1038 6 1010 z "},"í":{"ha":372,"x_min":103,"x_max":368,"o":"m 136 250 l 136 467 q 128 717 136 611 q 181 721 153 721 q 246 679 246 721 q 244 636 246 674 q 239 543 242 599 q 236 438 236 488 l 236 219 q 258 6 236 74 q 197 -3 238 -3 q 147 11 160 -3 q 133 58 133 25 q 135 143 133 75 q 136 250 136 211 m 333 922 q 223 853 303 900 q 125 790 143 807 q 103 831 103 810 q 125 872 103 854 q 205 932 147 889 q 319 1038 263 975 q 368 974 368 1010 q 333 922 368 946 z "},"î":{"ha":372,"x_min":-4,"x_max":372,"o":"m 136 250 l 136 467 q 128 717 136 611 q 181 721 153 721 q 246 679 246 721 q 244 636 246 674 q 239 543 242 599 q 236 438 236 488 l 236 219 q 258 6 236 74 q 197 -3 238 -3 q 147 11 160 -3 q 133 58 133 25 q 135 143 133 75 q 136 250 136 211 m 192 1006 q 315 912 257 964 q 372 822 372 860 q 340 783 372 797 q 276 847 314 817 q 214 892 239 878 l 189 907 q 163 885 181 900 q 135 863 146 871 q 110 842 125 854 q 84 823 94 831 q 63 808 74 815 q 44 798 53 801 q 31 794 36 794 q -4 819 14 794 q 192 1006 85 926 z "},"ï":{"ha":372,"x_min":-10,"x_max":381,"o":"m 136 250 l 136 467 q 128 717 136 611 q 181 721 153 721 q 246 679 246 721 q 244 636 246 674 q 239 543 242 599 q 236 438 236 488 l 236 219 q 258 6 236 74 q 197 -3 238 -3 q 147 11 160 -3 q 133 58 133 25 q 135 143 133 75 q 136 250 136 211 m 308 781 q 258 801 279 781 q 238 856 238 822 q 260 908 238 886 q 311 929 282 929 q 360 908 339 929 q 381 856 381 886 q 358 802 381 824 q 308 781 336 781 m 61 781 q 11 801 32 781 q -10 856 -10 822 q 13 908 -10 886 q 64 929 35 929 q 113 908 92 929 q 133 856 133 886 q 111 802 133 824 q 61 781 89 781 z "},"ð":{"ha":742,"x_min":-28,"x_max":657,"o":"m 54 57 q 71 346 68 143 q -24 342 22 346 q -28 372 -28 353 q -16 410 -28 400 q 21 422 -4 421 q 47 423 31 422 q 72 424 64 424 q 58 715 72 607 q 238 728 125 728 q 399 710 328 728 q 531 651 471 692 q 624 536 592 610 q 657 360 657 463 q 564 94 657 199 q 300 -10 471 -10 q 54 57 140 -10 m 172 424 l 228 424 q 361 428 321 424 q 365 397 365 417 q 353 359 365 369 q 317 347 342 349 q 238 346 288 346 l 171 346 q 157 104 165 178 q 301 67 214 67 q 419 92 369 67 q 496 159 469 117 q 534 247 522 201 q 546 340 546 292 q 466 574 546 496 q 238 653 386 653 q 217 652 228 653 q 191 650 206 651 q 168 649 176 649 q 172 478 172 593 l 172 424 z "},"ñ":{"ha":790,"x_min":114,"x_max":676,"o":"m 675 0 q 632 -3 647 -3 q 565 25 585 -3 q 408 281 524 89 q 219 579 293 472 q 222 251 222 475 q 244 4 222 68 q 196 -3 219 -3 q 146 11 158 -3 q 133 58 133 25 q 134 143 133 75 q 135 250 135 211 l 135 467 q 114 714 135 647 q 174 722 139 722 q 246 690 217 722 q 404 471 300 635 q 588 161 508 307 q 581 460 581 261 q 572 718 581 610 q 613 721 594 721 q 676 679 676 721 q 674 636 676 674 q 670 543 672 599 q 668 438 668 488 l 668 251 q 675 0 668 89 m 593 910 q 550 835 593 871 q 458 799 507 799 q 377 830 429 799 q 300 861 325 861 q 218 803 275 861 q 196 832 196 813 q 240 906 196 869 q 332 943 283 943 q 411 912 357 943 q 489 881 465 881 q 571 939 521 881 q 593 910 593 931 z "},"ò":{"ha":842,"x_min":67,"x_max":775,"o":"m 258 1038 q 367 937 310 981 q 449 873 424 893 q 474 832 474 853 q 451 792 474 811 q 345 858 413 821 q 244 921 278 896 q 210 974 210 946 q 258 1038 210 1010 m 419 -10 q 163 90 258 -10 q 67 358 67 190 q 163 628 67 528 q 419 728 258 728 q 678 628 582 728 q 775 358 775 528 q 678 90 775 190 q 419 -10 582 -10 m 664 339 q 642 486 664 418 q 562 603 619 554 q 421 651 504 651 q 242 578 308 651 q 176 390 176 504 q 199 236 176 307 q 278 115 221 165 q 419 65 335 65 q 600 141 536 65 q 664 339 664 217 z "},"ó":{"ha":842,"x_min":67,"x_max":775,"o":"m 579 922 q 469 853 549 900 q 371 790 389 807 q 349 831 349 810 q 371 872 349 854 q 451 932 393 889 q 565 1038 508 975 q 614 974 614 1010 q 579 922 614 946 m 419 -10 q 163 90 258 -10 q 67 358 67 190 q 163 628 67 528 q 419 728 258 728 q 678 628 582 728 q 775 358 775 528 q 678 90 775 190 q 419 -10 582 -10 m 664 339 q 642 486 664 418 q 562 603 619 554 q 421 651 504 651 q 242 578 308 651 q 176 390 176 504 q 199 236 176 307 q 278 115 221 165 q 419 65 335 65 q 600 141 536 65 q 664 339 664 217 z "},"ô":{"ha":842,"x_min":67,"x_max":775,"o":"m 429 1006 q 552 912 494 964 q 610 822 610 860 q 578 783 610 797 q 514 847 551 817 q 451 892 476 878 l 426 907 q 401 885 418 900 q 373 863 383 871 q 347 842 363 854 q 322 823 332 831 q 301 808 311 815 q 282 798 290 801 q 268 794 274 794 q 233 819 251 794 q 429 1006 322 926 m 419 -10 q 163 90 258 -10 q 67 358 67 190 q 163 628 67 528 q 419 728 258 728 q 678 628 582 728 q 775 358 775 528 q 678 90 775 190 q 419 -10 582 -10 m 664 339 q 642 486 664 418 q 562 603 619 554 q 421 651 504 651 q 242 578 308 651 q 176 390 176 504 q 199 236 176 307 q 278 115 221 165 q 419 65 335 65 q 600 141 536 65 q 664 339 664 217 z "},"õ":{"ha":842,"x_min":67,"x_max":775,"o":"m 619 910 q 576 835 619 871 q 485 799 533 799 q 403 830 456 799 q 326 861 351 861 q 244 803 301 861 q 222 832 222 813 q 266 906 222 869 q 358 943 310 943 q 438 912 383 943 q 515 881 492 881 q 597 939 547 881 q 619 910 619 931 m 419 -10 q 163 90 258 -10 q 67 358 67 190 q 163 628 67 528 q 419 728 258 728 q 678 628 582 728 q 775 358 775 528 q 678 90 775 190 q 419 -10 582 -10 m 664 339 q 642 486 664 418 q 562 603 619 554 q 421 651 504 651 q 242 578 308 651 q 176 390 176 504 q 199 236 176 307 q 278 115 221 165 q 419 65 335 65 q 600 141 536 65 q 664 339 664 217 z "},"ö":{"ha":842,"x_min":67,"x_max":775,"o":"m 544 781 q 494 801 515 781 q 474 856 474 822 q 496 908 474 886 q 547 929 518 929 q 596 908 575 929 q 617 856 617 886 q 594 802 617 824 q 544 781 572 781 m 297 781 q 247 801 268 781 q 226 856 226 822 q 249 908 226 886 q 300 929 271 929 q 349 908 328 929 q 369 856 369 886 q 347 802 369 824 q 297 781 325 781 m 419 -10 q 163 90 258 -10 q 67 358 67 190 q 163 628 67 528 q 419 728 258 728 q 678 628 582 728 q 775 358 775 528 q 678 90 775 190 q 419 -10 582 -10 m 664 339 q 642 486 664 418 q 562 603 619 554 q 421 651 504 651 q 242 578 308 651 q 176 390 176 504 q 199 236 176 307 q 278 115 221 165 q 419 65 335 65 q 600 141 536 65 q 664 339 664 217 z "},"÷":{"ha":743,"x_min":96,"x_max":647,"o":"m 647 358 q 633 317 647 333 q 597 300 619 300 q 498 306 575 300 q 381 311 421 311 q 100 300 222 311 q 96 342 96 321 q 108 382 96 364 q 146 400 121 400 q 233 395 150 400 q 378 390 317 390 q 643 400 558 390 q 647 358 647 388 m 430 532 q 419 521 430 532 q 376 510 408 510 q 322 532 344 510 q 300 589 300 554 q 322 645 300 622 q 376 668 344 668 q 430 645 408 668 q 451 589 451 622 q 430 532 451 554 m 430 54 q 419 43 430 54 q 376 32 408 32 q 322 54 344 32 q 300 111 300 76 q 322 167 300 144 q 376 190 344 190 q 430 167 408 190 q 451 111 451 144 q 430 54 451 76 z "},"ø":{"ha":842,"x_min":67,"x_max":775,"o":"m 176 390 q 253 139 176 229 l 525 628 q 421 651 481 651 q 242 578 308 651 q 176 390 176 504 m 664 339 q 586 581 664 490 l 314 89 q 419 65 358 65 q 600 141 536 65 q 664 339 664 217 m 151 -46 l 206 51 q 67 358 67 149 q 163 628 67 528 q 419 728 258 728 q 567 701 496 728 q 633 838 593 751 q 677 825 657 836 q 697 794 697 814 q 689 767 697 786 l 633 667 q 775 358 775 567 q 678 90 775 190 q 419 -10 582 -10 q 274 15 344 -10 l 271 11 q 207 -117 244 -35 q 143 -72 143 -108 q 151 -46 143 -62 z "},"ù":{"ha":806,"x_min":119,"x_max":706,"o":"m 225 1038 q 333 937 276 981 q 415 873 390 893 q 440 832 440 853 q 418 792 440 811 q 312 858 379 821 q 210 921 244 896 q 176 974 176 946 q 225 1038 176 1010 m 119 713 q 178 721 144 721 q 233 708 215 721 q 250 665 250 696 q 241 464 250 619 q 232 221 232 308 q 275 110 232 147 q 376 72 318 72 q 488 97 429 72 q 582 156 546 122 q 583 191 582 163 q 583 289 583 219 q 583 467 583 358 q 575 717 583 611 q 629 721 597 721 q 693 679 693 721 q 691 640 693 678 q 686 521 689 601 q 683 335 683 440 q 687 110 683 167 q 706 4 690 53 q 644 -3 682 -3 q 594 10 608 -3 q 581 60 581 24 l 581 76 q 472 15 535 39 q 357 -10 410 -10 q 190 38 251 -10 q 128 207 128 85 q 133 380 128 271 q 138 542 138 489 q 119 713 138 647 z "},"ú":{"ha":806,"x_min":119,"x_max":706,"o":"m 592 922 q 481 853 561 900 q 383 790 401 807 q 361 831 361 810 q 383 872 361 854 q 463 932 406 889 q 578 1038 521 975 q 626 974 626 1010 q 592 922 626 946 m 119 713 q 178 721 144 721 q 233 708 215 721 q 250 665 250 696 q 241 464 250 619 q 232 221 232 308 q 275 110 232 147 q 376 72 318 72 q 488 97 429 72 q 582 156 546 122 q 583 191 582 163 q 583 289 583 219 q 583 467 583 358 q 575 717 583 611 q 629 721 597 721 q 693 679 693 721 q 691 640 693 678 q 686 521 689 601 q 683 335 683 440 q 687 110 683 167 q 706 4 690 53 q 644 -3 682 -3 q 594 10 608 -3 q 581 60 581 24 l 581 76 q 472 15 535 39 q 357 -10 410 -10 q 190 38 251 -10 q 128 207 128 85 q 133 380 128 271 q 138 542 138 489 q 119 713 138 647 z "},"û":{"ha":806,"x_min":119,"x_max":706,"o":"m 421 1006 q 544 912 486 964 q 601 822 601 860 q 569 783 601 797 q 506 847 543 817 q 443 892 468 878 l 418 907 q 392 885 410 900 q 365 863 375 871 q 339 842 354 854 q 313 823 324 831 q 292 808 303 815 q 274 798 282 801 q 260 794 265 794 q 225 819 243 794 q 421 1006 314 926 m 119 713 q 178 721 144 721 q 233 708 215 721 q 250 665 250 696 q 241 464 250 619 q 232 221 232 308 q 275 110 232 147 q 376 72 318 72 q 488 97 429 72 q 582 156 546 122 q 583 191 582 163 q 583 289 583 219 q 583 467 583 358 q 575 717 583 611 q 629 721 597 721 q 693 679 693 721 q 691 640 693 678 q 686 521 689 601 q 683 335 683 440 q 687 110 683 167 q 706 4 690 53 q 644 -3 682 -3 q 594 10 608 -3 q 581 60 581 24 l 581 76 q 472 15 535 39 q 357 -10 410 -10 q 190 38 251 -10 q 128 207 128 85 q 133 380 128 271 q 138 542 138 489 q 119 713 138 647 z "},"ü":{"ha":806,"x_min":119,"x_max":706,"o":"m 536 781 q 486 801 507 781 q 465 856 465 822 q 488 908 465 886 q 539 929 510 929 q 588 908 567 929 q 608 856 608 886 q 586 802 608 824 q 536 781 564 781 m 289 781 q 239 801 260 781 q 218 856 218 822 q 240 908 218 886 q 292 929 263 929 q 340 908 319 929 q 361 856 361 886 q 339 802 361 824 q 289 781 317 781 m 119 713 q 178 721 144 721 q 233 708 215 721 q 250 665 250 696 q 241 464 250 619 q 232 221 232 308 q 275 110 232 147 q 376 72 318 72 q 488 97 429 72 q 582 156 546 122 q 583 191 582 163 q 583 289 583 219 q 583 467 583 358 q 575 717 583 611 q 629 721 597 721 q 693 679 693 721 q 691 640 693 678 q 686 521 689 601 q 683 335 683 440 q 687 110 683 167 q 706 4 690 53 q 644 -3 682 -3 q 594 10 608 -3 q 581 60 581 24 l 581 76 q 472 15 535 39 q 357 -10 410 -10 q 190 38 251 -10 q 128 207 128 85 q 133 380 128 271 q 138 542 138 489 q 119 713 138 647 z "},"ý":{"ha":589,"x_min":0,"x_max":578,"o":"m 494 922 q 384 853 464 900 q 286 790 304 807 q 264 831 264 810 q 286 872 264 854 q 366 932 308 889 q 481 1038 424 975 q 529 974 529 1010 q 494 922 529 946 m 578 672 q 499 525 578 639 q 349 329 419 411 l 349 225 q 369 6 349 78 q 308 -3 349 -3 q 258 11 271 -3 q 246 58 246 25 q 247 133 246 63 q 247 250 247 203 l 247 324 q 0 667 85 613 q 83 722 47 722 q 144 685 118 722 q 315 406 231 564 q 425 586 371 482 q 482 728 479 690 q 578 672 578 722 z "},"þ":{"ha":651,"x_min":114,"x_max":592,"o":"m 122 250 l 122 467 q 114 717 122 611 q 167 721 139 721 q 232 679 232 721 q 231 665 232 675 q 229 635 231 654 q 226 599 228 615 q 281 600 246 600 q 592 364 592 600 q 522 189 592 249 q 357 129 451 129 q 222 164 281 129 q 244 6 225 65 q 183 -3 224 -3 q 133 11 146 -3 q 119 58 119 25 q 121 143 119 75 q 122 250 122 211 m 328 206 q 440 247 400 206 q 481 357 481 288 q 435 489 481 453 q 294 525 390 525 q 224 521 290 525 q 222 438 222 494 l 222 228 q 328 206 267 206 z "},"ÿ":{"ha":589,"x_min":0,"x_max":578,"o":"m 421 781 q 371 801 392 781 q 350 856 350 822 q 372 908 350 886 q 424 929 394 929 q 472 908 451 929 q 493 856 493 886 q 471 802 493 824 q 421 781 449 781 m 174 781 q 124 801 144 781 q 103 856 103 822 q 125 908 103 886 q 176 929 147 929 q 225 908 204 929 q 246 856 246 886 q 224 802 246 824 q 174 781 201 781 m 578 672 q 499 525 578 639 q 349 329 419 411 l 349 225 q 369 6 349 78 q 308 -3 349 -3 q 258 11 271 -3 q 246 58 246 25 q 247 133 246 63 q 247 250 247 203 l 247 324 q 0 667 85 613 q 83 722 47 722 q 144 685 118 722 q 315 406 231 564 q 425 586 371 482 q 482 728 479 690 q 578 672 578 722 z "},"ı":{"ha":296,"x_min":92,"x_max":219,"o":"m 139 650 q 204 597 204 650 q 201 541 204 590 q 196 419 199 492 q 193 282 193 347 q 219 7 193 94 q 167 -4 194 -4 q 113 14 126 -4 q 99 75 99 32 q 100 185 99 97 q 101 321 101 272 q 92 646 101 519 q 139 650 114 650 z "},"Ł":{"ha":596,"x_min":-62,"x_max":596,"o":"m 101 463 l 101 599 q 92 921 101 794 q 149 925 115 925 q 217 872 217 925 q 214 816 217 865 q 208 691 211 767 q 206 543 206 615 q 386 694 304 621 q 431 642 431 672 q 410 607 431 622 l 206 450 q 215 86 206 147 q 307 83 274 83 q 586 115 524 83 q 596 54 596 86 q 583 18 596 29 q 371 -3 560 -3 q 163 0 204 -3 q 112 19 125 1 q 99 79 99 38 q 100 182 99 101 q 101 311 101 263 l 101 368 q 36 314 76 349 q -18 267 -4 279 q -62 321 -62 293 q -42 354 -62 338 l 101 463 z "},"ł":{"ha":575,"x_min":-40,"x_max":540,"o":"m -19 243 l 125 353 l 125 467 q 117 718 125 611 q 171 721 139 721 q 235 679 235 721 q 233 636 235 674 q 228 541 231 599 q 225 429 225 483 q 408 583 299 486 q 453 531 453 561 q 432 496 453 511 l 225 335 q 233 76 225 121 q 307 74 281 74 q 532 99 481 74 q 540 46 540 72 q 531 14 540 24 q 351 -1 510 -1 q 251 -1 321 -1 q 176 0 181 0 q 133 15 144 1 q 122 61 122 29 q 123 139 122 75 q 124 257 124 203 q 96 234 115 251 q 49 193 76 217 q 4 156 21 169 q -40 210 -40 182 q -19 243 -40 226 z "},"Œ":{"ha":1222,"x_min":68,"x_max":1181,"o":"m 492 71 q 656 113 586 71 q 657 205 656 138 q 658 311 658 272 l 658 589 q 651 804 658 693 q 494 850 583 850 q 267 752 351 850 q 182 503 182 654 q 199 347 182 421 q 251 210 217 274 q 348 108 286 146 q 492 71 410 71 m 757 832 q 763 538 763 771 l 872 538 q 1039 543 989 538 q 1044 507 1044 532 q 1030 464 1044 475 q 983 451 1015 453 q 885 450 947 450 l 763 450 q 772 86 763 147 q 871 83 833 83 q 1169 115 1104 83 q 1181 54 1181 88 q 1168 18 1181 29 q 943 -3 1143 -3 l 885 -3 q 654 13 715 -3 q 493 -14 578 -14 q 183 115 299 -14 q 68 460 68 244 q 183 806 68 678 q 493 935 299 935 q 639 913 568 935 q 942 925 788 925 q 1167 904 1142 925 q 1179 868 1179 893 q 1168 807 1179 835 q 910 836 1089 836 q 757 832 836 836 z "},"œ":{"ha":1172,"x_min":85,"x_max":1121,"o":"m 438 65 q 615 138 551 65 q 682 326 679 210 l 682 350 q 618 563 678 474 q 439 651 558 651 q 260 578 326 651 q 194 390 194 504 q 217 236 194 307 q 296 115 239 165 q 438 65 353 65 m 778 639 q 782 424 782 606 l 871 424 q 1004 428 964 424 q 1008 397 1008 418 q 997 359 1008 369 q 960 347 985 349 q 881 346 931 346 l 782 346 q 790 76 782 122 q 871 74 840 74 q 1111 99 1056 74 q 1121 46 1121 74 q 1110 14 1121 24 q 921 -1 1089 -1 q 815 -1 889 -1 q 738 0 742 0 q 691 15 703 1 q 679 61 679 29 l 679 72 q 438 -10 585 -10 q 181 90 276 -10 q 85 358 85 190 q 181 628 85 528 q 438 728 276 728 q 674 649 579 728 l 665 711 q 919 721 801 721 q 1108 704 1088 721 q 1119 672 1119 694 q 1110 619 1119 644 q 901 642 1043 642 q 778 639 847 642 z "},"Š":{"ha":719,"x_min":63,"x_max":657,"o":"m 383 994 q 260 1088 318 1036 q 203 1178 203 1140 q 235 1217 203 1203 q 299 1153 261 1183 q 361 1108 336 1122 l 386 1093 q 412 1115 394 1100 q 440 1138 429 1129 q 465 1158 450 1146 q 491 1177 481 1169 q 512 1192 501 1185 q 531 1202 522 1199 q 544 1206 539 1206 q 579 1181 561 1206 q 383 994 490 1074 m 557 740 q 472 816 533 786 q 346 846 411 846 q 227 807 275 846 q 179 693 179 768 q 206 606 179 640 q 274 553 232 571 q 367 522 317 535 q 469 492 418 508 q 562 450 519 475 q 631 376 604 425 q 657 258 657 328 q 629 131 657 186 q 554 46 601 76 q 452 1 507 15 q 336 -14 397 -14 q 145 24 228 -14 q 63 117 63 63 q 74 149 63 135 q 97 171 86 164 q 133 190 108 178 q 228 106 160 139 q 368 74 297 74 q 501 116 446 74 q 557 238 557 158 q 508 347 557 307 q 388 405 458 386 q 248 446 318 424 q 128 523 178 468 q 79 671 79 578 q 163 867 79 799 q 378 935 247 935 q 555 901 474 935 q 636 810 636 868 q 557 740 636 754 z "},"š":{"ha":631,"x_min":63,"x_max":564,"o":"m 319 783 q 197 877 254 825 q 139 967 139 929 q 171 1006 139 992 q 235 942 197 972 q 297 897 272 911 l 322 882 q 348 903 331 889 q 376 926 365 918 q 401 947 386 935 q 427 966 417 958 q 448 981 438 974 q 467 991 458 988 q 481 994 475 994 q 515 969 497 994 q 319 783 426 863 m 475 561 q 407 626 456 600 q 306 651 358 651 q 210 623 250 651 q 171 540 171 594 q 200 470 171 497 q 273 432 229 443 q 367 406 317 421 q 462 373 418 390 q 535 313 506 356 q 564 208 564 271 q 485 43 564 96 q 294 -10 407 -10 q 133 21 203 -10 q 63 96 63 51 q 125 161 63 131 q 203 93 147 119 q 319 67 260 67 q 426 97 381 67 q 471 182 471 126 q 431 259 471 231 q 333 301 390 288 q 217 334 275 315 q 119 398 160 353 q 79 517 79 443 q 150 674 79 619 q 331 728 221 728 q 478 701 411 728 q 546 625 546 674 q 475 561 546 575 z "},"Ÿ":{"ha":696,"x_min":-14,"x_max":689,"o":"m 689 871 q 583 674 689 836 q 399 418 478 513 l 399 300 q 425 7 399 97 q 360 -4 400 -4 q 306 14 319 -4 q 292 75 292 32 q 294 322 293 203 l 294 408 q -14 860 93 788 q 3 881 -10 865 q 22 900 17 896 q 36 913 26 904 q 54 924 46 921 q 74 926 63 926 q 140 879 108 926 q 363 501 224 758 q 505 735 429 589 q 583 933 581 882 q 689 871 689 926 m 469 989 q 419 1010 440 989 q 399 1064 399 1031 q 421 1116 399 1094 q 472 1138 443 1138 q 521 1116 500 1138 q 542 1064 542 1094 q 519 1010 542 1032 q 469 989 497 989 m 222 989 q 172 1010 193 989 q 151 1064 151 1031 q 174 1116 151 1094 q 225 1138 196 1138 q 274 1116 253 1138 q 294 1064 294 1094 q 272 1010 294 1032 q 222 989 250 989 z "},"Ž":{"ha":743,"x_min":36,"x_max":715,"o":"m 413 994 q 290 1088 347 1036 q 232 1178 232 1140 q 264 1217 232 1203 q 328 1153 290 1183 q 390 1108 365 1122 l 415 1093 q 441 1115 424 1100 q 469 1138 458 1129 q 494 1158 479 1146 q 520 1177 510 1169 q 541 1192 531 1185 q 560 1202 551 1199 q 574 1206 568 1206 q 608 1181 590 1206 q 413 994 519 1074 m 693 900 q 715 844 715 875 q 692 781 715 811 l 131 79 q 243 74 181 74 q 682 118 513 74 q 696 60 696 82 q 672 17 696 28 q 596 0 649 6 q 379 -8 513 -8 q 61 8 186 -8 q 36 78 36 42 q 71 165 36 122 l 594 833 q 425 842 529 842 q 78 804 229 842 q 64 863 64 838 q 104 913 64 901 q 281 926 163 926 q 693 900 536 926 z "},"ž":{"ha":654,"x_min":44,"x_max":619,"o":"m 339 783 q 216 877 274 825 q 158 967 158 929 q 190 1006 158 992 q 254 942 217 972 q 317 897 292 911 l 342 882 q 367 903 350 889 q 395 926 385 918 q 421 947 406 935 q 447 966 436 958 q 467 981 457 974 q 486 991 478 988 q 500 994 494 994 q 535 969 517 994 q 339 783 446 863 m 601 701 q 619 658 619 681 q 600 608 619 632 l 144 68 q 225 65 183 65 q 589 100 444 65 q 600 50 600 67 q 580 13 600 22 q 517 0 560 4 q 333 -6 456 -6 q 65 6 176 -6 q 44 60 44 33 q 72 128 44 96 l 497 642 q 371 646 460 646 q 83 617 208 646 q 72 668 72 647 q 104 711 72 701 q 251 722 151 722 q 601 701 456 722 z "},"ƒ":{"ha":743,"x_min":17,"x_max":676,"o":"m 389 467 l 371 181 q 309 -77 360 13 q 132 -167 258 -167 q 45 -146 74 -167 q 17 -94 17 -125 q 36 -51 17 -72 q 93 -25 56 -31 q 163 -90 111 -90 q 243 -43 222 -90 q 271 115 264 4 l 293 468 q 206 463 251 467 q 201 485 201 475 q 244 519 201 519 q 267 520 249 519 q 296 521 286 521 q 315 655 301 599 q 357 759 329 711 q 434 831 385 807 q 553 856 483 856 q 646 835 615 856 q 676 783 676 814 q 657 740 676 761 q 600 714 638 719 q 521 779 581 779 q 427 732 451 779 q 396 574 403 685 l 393 526 q 581 543 517 533 q 586 511 586 532 q 569 472 586 481 q 514 463 551 463 q 475 463 496 463 q 429 465 454 464 q 389 467 404 467 z "},"ˆ":{"ha":385,"x_min":-3,"x_max":374,"o":"m 193 943 q 316 849 258 901 q 374 760 374 797 q 342 721 374 735 q 278 785 315 754 q 215 831 240 817 l 190 844 q 165 823 182 838 q 137 800 147 808 q 111 780 126 792 q 85 760 96 768 q 65 746 75 753 q 46 735 54 739 q 32 732 38 732 q -3 757 15 732 q 193 943 86 864 z "},"ˇ":{"ha":385,"x_min":36,"x_max":413,"o":"m 217 721 q 94 815 151 763 q 36 904 36 867 q 68 943 36 929 q 132 879 94 910 q 194 833 169 849 l 219 819 q 245 841 228 826 q 273 864 263 856 q 299 884 283 872 q 324 903 314 896 q 345 918 335 911 q 364 928 356 925 q 378 932 372 932 q 413 907 394 932 q 217 721 324 800 z "},"˘":{"ha":378,"x_min":0,"x_max":378,"o":"m 99 862 q 114 847 99 862 q 189 832 129 832 q 278 862 249 832 q 326 954 308 892 q 378 913 378 950 q 324 800 378 858 q 189 742 271 742 q 53 800 107 742 q 0 913 0 858 q 51 954 0 950 q 99 862 69 892 z "},"˙":{"ha":143,"x_min":0,"x_max":143,"o":"m 71 724 q 21 744 42 724 q 0 799 0 765 q 22 851 0 829 q 74 872 44 872 q 122 851 101 872 q 143 799 143 829 q 121 745 143 767 q 71 724 99 724 z "},"˚":{"ha":213,"x_min":-31,"x_max":231,"o":"m 151 847 q 138 899 151 879 q 101 919 125 919 q 49 860 49 919 q 63 809 49 829 q 101 789 78 789 q 151 847 151 789 m 195 758 q 177 740 195 758 q 101 722 160 722 q 6 758 43 722 q -31 854 -31 794 q 6 950 -31 914 q 101 986 43 986 q 195 950 160 986 q 231 854 231 914 q 195 758 231 794 z "},"˛":{"ha":653,"x_min":274,"x_max":533,"o":"m 456 21 l 493 10 q 387 -74 415 -29 q 358 -172 358 -118 q 376 -228 358 -208 q 422 -249 394 -249 q 501 -201 471 -249 q 533 -243 533 -221 q 495 -286 533 -268 q 410 -304 457 -304 q 313 -274 353 -304 q 274 -182 274 -244 q 320 -64 274 -111 q 456 21 367 -17 z "},"˜":{"ha":397,"x_min":0,"x_max":397,"o":"m 397 847 q 354 772 397 808 q 263 736 311 736 q 181 767 233 736 q 104 799 129 799 q 22 740 79 799 q 0 769 0 750 q 44 844 0 807 q 136 881 88 881 q 215 849 161 881 q 293 818 269 818 q 375 876 325 818 q 397 847 397 868 z "},"˝":{"ha":557,"x_min":10,"x_max":539,"o":"m 240 860 q 129 790 208 838 q 32 728 50 743 q 10 768 10 747 q 34 811 10 792 q 116 874 58 831 q 226 975 174 917 q 275 911 275 947 q 240 860 275 882 m 504 860 q 393 790 472 838 q 296 728 314 743 q 274 768 274 747 q 298 811 274 792 q 380 874 322 831 q 490 975 438 917 q 539 911 539 947 q 504 860 539 882 z "},"π":{"ha":711,"x_min":14,"x_max":683,"o":"m 14 592 q 17 619 14 608 q 38 639 21 629 q 86 649 54 649 q 131 648 89 649 q 243 647 172 647 q 389 646 314 646 l 488 646 q 672 672 613 646 q 683 629 683 653 q 667 585 683 597 q 611 572 650 572 l 540 572 q 531 235 531 349 l 531 192 q 557 7 531 67 q 504 -4 532 -4 q 451 13 465 -4 q 436 68 436 29 q 438 186 436 86 q 439 339 439 286 q 440 574 439 514 q 346 575 407 575 l 240 575 l 240 339 q 242 186 240 286 q 243 68 243 86 q 231 13 243 29 q 183 -4 218 -4 q 136 7 158 -4 q 163 192 163 67 l 163 235 q 160 383 163 306 q 156 513 158 461 q 153 574 153 565 q 25 549 81 571 q 14 592 14 571 z "},"–":{"ha":826,"x_min":42,"x_max":785,"o":"m 785 371 q 771 329 785 346 q 735 313 757 313 q 639 318 714 313 q 525 324 564 324 l 326 324 q 46 313 168 324 q 42 354 42 333 q 54 394 42 376 q 92 413 67 413 q 179 408 96 413 q 324 403 263 403 l 521 403 q 781 413 697 403 q 785 371 785 400 z "},"—":{"ha":1049,"x_min":42,"x_max":1007,"o":"m 1007 371 q 993 332 1007 347 q 957 317 979 317 q 901 320 946 317 q 818 324 856 324 l 200 324 q 46 313 114 324 q 42 354 42 333 q 53 392 42 376 q 92 408 65 408 q 147 406 94 408 q 240 403 199 403 l 858 403 q 1003 413 946 403 q 1007 371 1007 400 z "},"‘":{"ha":246,"x_min":24,"x_max":221,"o":"m 110 860 q 178 778 110 792 q 192 732 192 756 q 168 683 192 703 q 111 663 144 663 q 49 694 75 663 q 24 793 24 726 q 72 954 24 881 q 185 1028 119 1028 q 221 986 221 1028 q 219 969 221 975 l 213 969 q 139 936 168 969 q 110 860 110 903 z "},"’":{"ha":339,"x_min":58,"x_max":256,"o":"m 169 831 q 101 913 169 899 q 88 958 88 935 q 111 1008 88 988 q 168 1028 135 1028 q 230 996 204 1028 q 256 897 256 964 q 208 736 256 810 q 94 663 160 663 q 58 704 58 663 q 60 721 58 715 l 67 721 q 140 754 111 721 q 169 831 169 788 z "},"‚":{"ha":303,"x_min":36,"x_max":233,"o":"m 147 -31 q 79 51 147 38 q 65 97 65 74 q 89 147 65 126 q 146 167 113 167 q 208 135 182 167 q 233 36 233 103 q 185 -125 233 -51 q 72 -199 138 -199 q 36 -157 36 -199 q 38 -140 36 -146 l 44 -140 q 118 -107 89 -140 q 147 -31 147 -74 z "},"“":{"ha":568,"x_min":42,"x_max":513,"o":"m 401 857 q 469 775 401 789 q 483 729 483 753 q 460 680 483 700 q 403 660 436 660 q 341 692 367 660 q 315 790 315 724 q 363 951 315 878 q 476 1025 411 1025 q 513 983 513 1025 q 511 967 513 972 l 504 967 q 431 933 460 967 q 401 857 401 900 m 128 857 q 196 775 128 789 q 210 729 210 753 q 186 680 210 700 q 129 660 163 660 q 67 692 93 660 q 42 790 42 724 q 90 951 42 878 q 203 1025 138 1025 q 239 983 239 1025 q 238 967 239 972 l 231 967 q 157 933 186 967 q 128 857 128 900 z "},"”":{"ha":632,"x_min":69,"x_max":535,"o":"m 181 831 q 113 913 181 899 q 99 958 99 935 q 122 1008 99 988 q 179 1028 146 1028 q 241 996 215 1028 q 267 897 267 964 q 219 736 267 810 q 106 663 171 663 q 69 704 69 663 q 71 721 69 715 l 78 721 q 151 754 122 721 q 181 831 181 788 m 449 831 q 381 913 449 899 q 367 958 367 935 q 390 1008 367 988 q 447 1028 414 1028 q 509 996 483 1028 q 535 897 535 964 q 487 736 535 810 q 374 663 439 663 q 338 704 338 663 q 339 721 338 715 l 346 721 q 419 754 390 721 q 449 831 449 788 z "},"„":{"ha":571,"x_min":36,"x_max":501,"o":"m 147 -31 q 79 51 147 38 q 65 97 65 74 q 89 147 65 126 q 146 167 113 167 q 208 135 182 167 q 233 36 233 103 q 185 -125 233 -51 q 72 -199 138 -199 q 36 -157 36 -199 q 38 -140 36 -146 l 44 -140 q 118 -107 89 -140 q 147 -31 147 -74 m 415 -31 q 347 51 415 38 q 333 97 333 74 q 357 147 333 126 q 414 167 381 167 q 476 135 450 167 q 501 36 501 103 q 453 -125 501 -51 q 340 -199 406 -199 q 304 -157 304 -199 q 306 -140 304 -146 l 313 -140 q 386 -107 357 -140 q 415 -31 415 -74 z "},"†":{"ha":632,"x_min":63,"x_max":569,"o":"m 63 638 q 115 703 63 703 q 141 699 122 703 q 194 691 160 696 q 275 685 229 686 q 257 926 275 704 q 317 935 294 935 q 375 926 339 935 q 357 685 357 704 q 558 718 454 686 q 569 665 569 693 q 551 611 569 625 q 490 597 533 597 q 426 601 467 597 q 357 606 386 606 q 367 230 361 379 q 378 27 374 81 q 382 -40 382 -26 q 365 -91 382 -64 q 332 -133 349 -118 l 315 -147 q 250 -40 250 -94 q 254 27 250 -26 q 265 230 258 81 q 275 607 271 379 q 157 599 224 606 q 67 590 90 592 q 63 638 63 613 z "},"‡":{"ha":633,"x_min":63,"x_max":571,"o":"m 376 390 q 368 294 376 364 q 358 182 360 225 q 476 190 410 183 q 567 199 543 197 q 571 151 571 176 q 518 86 571 86 q 492 90 511 86 q 439 98 474 93 q 358 104 404 103 q 376 -137 358 85 q 317 -146 339 -146 q 258 -137 294 -146 q 276 104 276 85 q 75 71 179 103 q 64 124 64 96 q 82 178 64 164 q 143 192 100 192 q 207 188 167 192 q 276 183 247 183 q 265 293 275 225 q 256 390 256 361 q 265 492 256 421 q 275 607 274 564 q 157 599 224 606 q 67 590 90 592 q 63 638 63 613 q 115 703 63 703 q 141 699 122 703 q 194 691 160 696 q 275 685 229 686 q 257 926 275 704 q 317 935 294 935 q 375 926 339 935 q 357 685 357 704 q 558 718 454 686 q 569 665 569 693 q 551 611 569 625 q 490 597 533 597 q 426 601 467 597 q 357 606 386 606 q 367 490 358 561 q 376 390 376 418 z "},"•":{"ha":372,"x_min":35,"x_max":338,"o":"m 188 215 q 79 260 124 215 q 35 372 35 304 q 80 485 35 439 q 188 532 125 532 q 294 485 250 532 q 338 372 338 439 q 294 260 338 304 q 188 215 250 215 z "},"…":{"ha":1063,"x_min":58,"x_max":1007,"o":"m 202 11 q 190 -1 202 11 q 143 -14 178 -14 q 83 11 108 -14 q 58 74 58 36 q 83 137 58 111 q 143 163 108 163 q 202 137 178 163 q 226 74 226 111 q 202 11 226 36 m 983 11 q 970 -1 983 11 q 924 -14 958 -14 q 864 11 889 -14 q 839 74 839 36 q 864 137 839 111 q 924 163 889 163 q 983 137 958 163 q 1007 74 1007 111 q 983 11 1007 36 m 592 11 q 580 -1 592 11 q 533 -14 568 -14 q 474 11 499 -14 q 449 74 449 36 q 474 137 449 111 q 533 163 499 163 q 592 137 568 163 q 617 74 617 111 q 592 11 617 36 z "},"‰":{"ha":1561,"x_min":69,"x_max":1492,"o":"m 1303 -14 q 1164 41 1215 -14 q 1113 189 1113 96 q 1164 337 1113 282 q 1303 392 1215 392 q 1440 337 1389 392 q 1492 189 1492 282 q 1440 41 1492 96 q 1303 -14 1389 -14 m 1408 181 q 1381 285 1408 239 q 1303 331 1353 331 q 1224 294 1256 331 q 1193 204 1193 258 q 1222 96 1193 143 q 1301 49 1250 49 q 1379 86 1350 49 q 1408 181 1408 124 m 844 -14 q 706 41 757 -14 q 654 189 654 96 q 706 337 654 282 q 844 392 757 392 q 982 337 931 392 q 1033 189 1033 282 q 982 41 1033 96 q 844 -14 931 -14 m 950 181 q 922 285 950 239 q 844 331 894 331 q 766 294 797 331 q 735 204 735 258 q 763 96 735 143 q 843 49 792 49 q 921 86 892 49 q 950 181 950 124 m 251 22 l 618 490 q 813 750 744 651 q 852 733 833 747 q 871 703 871 718 q 857 671 871 690 l 490 201 q 296 -58 369 47 q 238 -10 238 -40 q 251 22 238 4 m 260 290 q 121 345 172 290 q 69 493 69 400 q 121 641 69 586 q 260 696 172 696 q 397 641 346 696 q 449 493 449 586 q 397 345 449 400 q 260 290 346 290 m 365 485 q 338 589 365 543 q 260 635 310 635 q 181 599 213 635 q 150 508 150 563 q 178 400 150 447 q 258 353 207 353 q 336 390 307 353 q 365 485 365 428 z "},"‹":{"ha":396,"x_min":56,"x_max":313,"o":"m 165 326 q 263 193 214 267 q 313 100 313 119 q 285 61 313 82 q 56 326 193 138 q 285 592 193 515 q 313 553 313 571 q 263 460 313 533 q 165 326 214 386 z "},"›":{"ha":396,"x_min":56,"x_max":313,"o":"m 203 326 q 105 460 154 386 q 56 553 56 533 q 83 592 56 571 q 313 326 175 515 q 83 61 175 138 q 56 100 56 82 q 105 193 56 119 q 203 326 154 267 z "},"⁄":{"ha":406,"x_min":-125,"x_max":494,"o":"m -117 -79 l 289 733 q 426 1028 378 911 q 460 1021 450 1025 q 494 985 494 1010 q 486 958 494 975 l 81 146 q -57 -149 -12 -40 l -86 -144 q -125 -107 -125 -131 q -117 -79 -125 -96 z "},"€":{"ha":743,"x_min":33,"x_max":713,"o":"m 136 356 q 135 397 135 368 q 136 440 135 426 q 38 433 107 439 q 33 457 33 447 q 71 494 33 494 l 143 494 q 279 728 171 651 q 529 806 388 806 q 713 739 713 806 q 682 676 713 694 q 521 728 614 728 q 349 668 429 728 q 243 494 269 608 l 403 494 q 628 501 547 494 l 631 481 q 593 440 631 440 l 235 440 q 233 396 233 425 q 235 356 233 368 l 314 356 q 628 363 547 356 l 631 342 q 593 301 631 301 l 243 301 q 348 126 268 186 q 521 65 428 65 q 682 115 613 65 q 713 53 713 97 q 529 -14 713 -14 q 277 63 385 -14 q 142 301 169 139 q 38 294 113 300 q 33 318 33 308 q 71 356 33 356 l 136 356 z "},"™":{"ha":1196,"x_min":139,"x_max":1104,"o":"m 1088 767 l 1088 558 q 1104 413 1088 471 q 1056 404 1079 404 q 1017 417 1026 404 q 1007 458 1007 429 q 1008 587 1007 497 q 1008 774 1008 676 q 875 410 942 625 q 844 406 864 406 q 797 432 808 406 q 749 555 778 479 q 698 684 719 631 q 658 771 676 738 l 658 558 q 675 413 658 471 q 633 404 650 404 q 594 417 604 404 q 585 458 585 429 q 585 502 585 468 q 586 606 586 536 q 586 772 586 675 q 574 903 586 840 q 628 911 607 911 q 692 868 667 911 q 836 535 763 743 q 982 868 893 707 q 1047 911 1006 911 q 1100 900 1072 911 q 1088 767 1088 847 m 182 906 l 356 906 q 511 910 472 906 q 517 879 517 888 q 476 839 517 839 l 368 839 l 368 572 q 386 413 368 469 q 336 404 356 404 q 297 417 307 404 q 288 458 288 429 l 288 839 q 144 835 194 839 q 139 867 139 851 q 149 897 139 889 q 182 906 160 904 z "},"Ω":{"ha":1161,"x_min":63,"x_max":1099,"o":"m 278 822 q 340 881 278 822 q 581 940 401 940 q 883 822 760 940 q 1006 515 1006 703 q 735 83 1006 244 l 986 83 q 1064 225 1015 124 q 1074 226 1068 226 q 1099 204 1099 226 q 1061 0 1099 167 l 754 0 q 674 83 674 0 q 678 128 674 86 q 890 501 890 256 q 808 762 889 661 q 581 863 726 863 q 353 762 435 863 q 271 501 272 661 q 483 128 271 256 q 488 82 488 107 q 407 0 488 0 l 100 0 q 63 204 63 167 q 88 226 63 226 q 97 225 93 226 q 175 83 146 124 l 426 83 q 156 515 156 244 q 278 822 156 703 z "},"∂":{"ha":721,"x_min":69,"x_max":638,"o":"m 369 481 q 226 410 283 481 q 168 233 168 340 q 203 112 168 160 q 310 64 239 64 q 435 118 382 64 q 511 247 488 172 q 540 411 535 321 q 369 481 454 481 m 146 831 q 132 883 132 860 q 211 935 132 935 q 531 806 425 935 q 638 449 638 676 q 619 283 638 363 q 563 136 600 204 q 460 27 526 68 q 310 -14 394 -14 q 131 64 193 -14 q 69 253 69 142 q 148 470 69 383 q 342 557 226 557 q 543 481 446 557 q 469 754 540 657 q 271 851 399 851 q 146 831 214 851 z "},"∆":{"ha":921,"x_min":56,"x_max":865,"o":"m 153 97 q 443 83 240 83 q 725 97 640 83 q 447 771 497 631 q 153 97 278 392 m 56 56 q 168 306 89 132 q 304 609 247 479 q 410 863 361 739 q 468 893 422 893 q 504 889 479 893 q 865 56 739 339 q 826 0 865 0 l 94 0 q 56 56 56 0 z "},"∏":{"ha":949,"x_min":28,"x_max":943,"o":"m 943 882 q 890 828 943 828 l 735 833 q 731 772 735 825 q 726 655 728 719 q 724 531 724 590 l 724 282 q 750 7 724 94 q 685 -4 725 -4 q 631 14 644 -4 q 617 75 617 32 q 618 185 617 97 q 619 321 619 272 l 619 836 l 579 836 q 315 835 383 836 l 315 321 q 317 185 315 272 q 318 75 318 97 q 306 14 318 32 q 257 -4 293 -4 q 199 7 221 -4 q 225 282 225 94 l 225 531 q 223 656 225 592 q 217 774 221 719 q 214 833 214 828 q 39 815 104 829 q 28 868 28 835 q 46 911 28 900 q 107 922 64 922 q 217 921 129 922 q 353 919 304 919 l 617 919 q 939 928 803 919 q 943 882 943 908 z "},"∑":{"ha":874,"x_min":35,"x_max":804,"o":"m 633 831 l 206 832 l 425 446 q 431 425 431 435 q 397 350 431 404 l 188 13 l 692 13 q 769 154 721 53 q 779 156 774 156 q 804 133 804 156 q 764 -86 804 89 l 56 -86 q 42 -79 47 -86 q 36 -67 36 -72 l 35 -60 l 328 397 l 50 875 q 58 903 50 892 q 81 914 67 914 l 701 914 q 733 731 733 772 q 708 708 733 708 q 699 710 703 708 q 633 831 658 794 z "},"−":{"ha":743,"x_min":96,"x_max":647,"o":"m 647 357 q 633 315 647 332 q 597 299 619 299 q 498 304 575 299 q 381 310 421 310 q 100 299 222 310 q 96 340 96 319 q 108 381 96 363 q 146 399 121 399 q 233 394 150 399 q 378 389 317 389 q 643 399 558 389 q 647 357 647 386 z "},"√":{"ha":774,"x_min":42,"x_max":714,"o":"m 224 668 l 472 128 l 644 1024 q 671 1025 654 1025 q 714 994 714 1025 q 518 3 714 992 q 499 -35 513 -25 q 458 -44 485 -44 l 450 -44 l 158 582 q 65 533 133 572 q 42 567 42 544 q 57 593 42 583 q 224 668 149 649 z "},"∞":{"ha":1018,"x_min":56,"x_max":963,"o":"m 879 367 q 842 457 879 424 q 753 490 806 490 q 681 469 719 490 q 623 429 643 447 q 571 379 603 411 l 558 367 q 751 233 674 233 q 843 271 807 233 q 879 367 879 308 m 267 233 q 341 255 301 233 q 404 297 381 276 q 463 354 428 318 q 424 400 447 375 q 352 458 401 425 q 258 490 303 490 q 173 451 207 490 q 139 357 139 413 q 176 270 139 307 q 267 233 213 233 m 261 567 q 390 528 332 567 q 511 419 447 490 q 588 492 560 468 q 665 542 615 517 q 765 567 715 567 q 906 509 850 567 q 963 364 963 451 q 900 214 963 269 q 751 158 838 158 q 635 192 692 158 q 507 300 579 225 q 435 232 467 258 q 353 182 403 206 q 256 158 304 158 q 113 217 171 158 q 56 361 56 275 q 115 508 56 450 q 261 567 174 567 z "},"∫":{"ha":411,"x_min":-42,"x_max":453,"o":"m 147 556 q 364 1026 147 1026 q 428 1006 404 1026 q 453 953 453 985 q 429 906 453 925 q 379 885 406 888 q 313 950 354 950 q 251 761 251 950 q 258 490 251 668 q 264 236 264 311 q 210 -131 264 -18 q 47 -243 156 -243 q -17 -222 7 -243 q -42 -169 -42 -201 q -18 -123 -42 -142 q 32 -101 6 -104 q 99 -167 57 -167 q 169 44 169 -167 q 158 296 169 131 q 147 556 147 461 z "},"≈":{"ha":743,"x_min":26,"x_max":715,"o":"m 715 231 q 666 147 715 190 q 547 103 617 103 q 418 130 483 103 q 298 184 353 157 q 206 211 243 211 q 141 196 169 211 q 100 165 113 181 q 71 124 88 150 q 26 169 26 136 q 76 253 26 210 q 194 297 125 297 q 382 243 274 297 q 536 189 490 189 q 601 204 572 189 q 642 235 629 219 q 671 276 654 250 q 715 231 715 264 m 715 508 q 666 424 715 468 q 547 381 617 381 q 418 408 483 381 q 298 462 353 435 q 206 489 243 489 q 141 474 169 489 q 100 443 113 458 q 71 401 88 428 q 26 447 26 414 q 76 531 26 488 q 194 575 125 575 q 382 521 274 575 q 536 467 490 467 q 601 482 572 467 q 642 513 629 497 q 671 554 654 528 q 715 508 715 542 z "},"≠":{"ha":743,"x_min":96,"x_max":647,"o":"m 647 219 q 633 178 647 194 q 597 161 619 161 q 498 167 575 161 q 381 172 421 172 l 308 172 l 304 164 q 183 -67 231 31 q 119 -22 119 -58 q 128 4 119 -12 l 221 169 q 100 161 190 168 q 96 203 96 182 q 108 243 96 225 q 146 261 121 261 q 171 260 153 261 q 217 257 189 258 q 269 254 246 256 l 379 450 q 100 439 222 450 q 96 481 96 460 q 108 521 96 503 q 146 539 121 539 q 233 534 150 539 q 378 529 317 529 l 424 529 q 550 775 494 658 q 594 763 574 774 q 614 732 614 751 q 606 704 614 719 l 508 531 q 643 539 592 533 q 647 497 647 526 q 633 456 647 472 q 597 439 619 439 q 461 447 569 439 l 353 251 l 378 251 q 643 261 558 251 q 647 219 647 249 z "},"≤":{"ha":743,"x_min":147,"x_max":575,"o":"m 575 71 q 561 29 575 46 q 525 13 547 13 q 453 16 503 13 q 364 19 404 19 q 153 8 275 19 q 149 43 149 29 q 161 83 149 65 q 199 101 174 101 q 276 99 211 101 q 361 96 340 96 q 571 106 486 96 q 575 71 575 93 m 265 417 q 408 317 289 397 q 547 221 526 236 q 519 183 538 199 q 479 167 501 167 q 442 185 463 167 l 147 417 l 442 649 q 479 667 465 667 q 519 651 500 667 q 547 613 539 635 q 455 547 524 594 q 328 460 386 500 q 265 417 269 419 z "},"≥":{"ha":743,"x_min":146,"x_max":574,"o":"m 146 71 q 150 106 146 93 q 360 96 235 96 q 445 99 381 96 q 522 101 510 101 q 560 83 547 101 q 572 43 572 65 q 568 8 572 29 q 357 19 446 19 q 267 16 317 19 q 196 13 218 13 q 160 29 174 13 q 146 71 146 46 m 456 417 q 393 460 451 419 q 266 547 335 500 q 174 613 197 594 q 201 651 182 635 q 242 667 221 667 q 279 649 256 667 l 574 417 l 279 185 q 242 167 258 167 q 201 183 219 167 q 174 221 183 199 q 313 317 194 236 q 456 417 432 397 z "},"◊":{"ha":711,"x_min":49,"x_max":663,"o":"m 575 476 l 356 888 l 136 476 l 356 65 l 575 476 m 49 476 l 293 928 q 356 953 307 953 q 418 928 406 953 l 663 476 l 418 25 q 356 0 401 0 q 293 25 307 0 l 49 476 z "},"":{"ha":1133,"x_min":111,"x_max":1022,"o":"m 990 225 q 1006 163 1001 183 q 1022 8 1022 86 q 1013 -1 1022 -1 l 976 -1 q 968 7 968 -1 q 978 17 968 17 l 1004 17 q 979 190 1004 82 l 972 221 q 942 271 967 249 q 876 297 917 293 q 740 328 817 303 q 719 338 721 335 q 716 374 718 346 q 713 411 714 401 q 639 429 675 411 q 635 439 635 431 q 644 447 635 447 q 669 438 646 447 q 725 429 692 429 q 763 439 753 429 q 780 522 768 446 q 801 618 792 597 q 807 708 807 636 q 801 800 807 772 q 621 935 776 935 q 439 876 504 935 q 374 711 374 817 q 405 559 374 621 q 490 483 436 497 q 499 472 499 481 q 494 399 499 464 q 489 332 490 335 q 483 329 486 329 q 363 297 447 329 q 258 264 289 268 q 164 189 181 253 l 154 149 q 131 17 135 65 l 328 17 q 338 8 338 17 q 328 -1 338 -1 l 121 -1 q 111 8 111 -1 q 136 150 115 67 l 147 192 q 183 252 153 225 q 257 285 213 279 q 369 319 288 289 q 474 347 442 346 q 481 467 479 425 q 388 551 421 486 q 356 711 356 615 q 425 891 356 826 q 621 956 494 956 q 822 804 789 956 q 826 732 826 779 q 819 611 826 649 q 794 497 801 567 q 772 425 788 443 q 731 410 761 413 q 734 374 732 397 q 736 347 736 351 q 881 315 821 322 q 953 284 924 311 q 990 225 982 257 m 704 782 l 711 775 l 686 736 l 668 751 l 704 782 m 715 775 l 722 782 l 758 751 l 740 736 l 715 775 m 718 797 l 708 797 l 701 840 l 725 840 l 718 797 m 707 794 l 703 785 l 660 794 l 668 815 l 707 794 m 722 785 l 719 794 l 758 815 l 767 794 l 722 785 z "},"ﬁ":{"ha":929,"x_min":114,"x_max":815,"o":"m 231 335 l 231 217 q 253 3 231 71 q 192 -6 225 -6 q 141 8 154 -6 q 128 54 128 22 q 129 140 128 72 q 131 246 131 208 l 131 464 q 114 711 131 621 q 368 721 250 721 q 557 704 536 721 q 568 672 568 694 q 558 619 568 644 q 350 642 492 642 q 226 639 304 642 q 231 500 231 601 l 231 413 l 319 413 q 453 417 413 413 q 457 385 457 406 q 439 342 457 350 q 357 335 421 335 l 231 335 m 693 250 l 693 467 q 685 717 693 611 q 738 721 710 721 q 803 679 803 721 q 800 636 803 674 q 795 543 797 599 q 793 438 793 488 l 793 219 q 815 6 793 74 q 754 -3 794 -3 q 703 11 717 -3 q 690 58 690 25 q 692 143 690 75 q 693 250 693 211 z "},"ﬂ":{"ha":1094,"x_min":114,"x_max":1094,"o":"m 231 335 l 231 217 q 253 3 231 71 q 192 -6 225 -6 q 141 8 154 -6 q 128 54 128 22 q 129 140 128 72 q 131 246 131 208 l 131 464 q 114 711 131 621 q 368 721 250 721 q 557 704 536 721 q 568 672 568 694 q 558 619 568 644 q 350 642 492 642 q 226 639 304 642 q 231 500 231 601 l 231 413 l 319 413 q 453 417 413 413 q 457 385 457 406 q 439 342 457 350 q 357 335 421 335 l 231 335 m 679 242 l 679 467 q 671 718 679 611 q 725 721 693 721 q 789 679 789 721 q 786 636 789 674 q 781 543 783 599 q 779 438 779 488 l 779 342 q 788 76 779 122 q 861 74 835 74 q 1086 99 1033 74 q 1094 46 1094 71 q 1085 14 1094 24 q 906 -1 1064 -1 q 805 -1 875 -1 q 731 0 735 0 q 688 15 699 1 q 676 61 676 29 q 678 140 676 78 q 679 242 679 203 z "}}}
